<?xml version="1.0" encoding="UTF-8"?><svg xmlns="http://www.w3.org/2000/svg" xmlns:xlink="http://www.w3.org/1999/xlink" contentScriptType="text/ecmascript" width="37.5" zoomAndPan="magnify" contentStyleType="text/css" viewBox="0 0 37.5 37.499999" height="37.499999" preserveAspectRatio="xMidYMid meet" version="1.0"><defs><clipPath id="clip-0"><path d="M 0 0 L 37.007812 0 L 37.007812 37.007812 L 0 37.007812 Z M 0 0 " clip-rule="nonzero"/></clipPath><clipPath id="clip-1"><path d="M 6 7.402344 L 21 7.402344 L 21 19 L 6 19 Z M 6 7.402344 " clip-rule="nonzero"/></clipPath><clipPath id="clip-2"><path d="M 5.433594 18.253906 L 32.324219 18.253906 L 32.324219 29.902344 L 5.433594 29.902344 Z M 5.433594 18.253906 " clip-rule="nonzero"/></clipPath><clipPath id="clip-3"><path d="M 11 22 L 18 22 L 18 29.902344 L 11 29.902344 Z M 11 22 " clip-rule="nonzero"/></clipPath><clipPath id="clip-4"><path d="M 19 28 L 24 28 L 24 29.902344 L 19 29.902344 Z M 19 28 " clip-rule="nonzero"/></clipPath></defs><g clip-path="url(#clip-0)"><path fill="rgb(100%, 100%, 100%)" d="M 0 0 L 37.5 0 L 37.5 37.5 L 0 37.5 Z M 0 0 " fill-opacity="1" fill-rule="nonzero"/><path fill="rgb(100%, 100%, 100%)" d="M 0 0 L 37.5 0 L 37.5 37.5 L 0 37.5 Z M 0 0 " fill-opacity="1" fill-rule="nonzero"/></g><path fill="rgb(83.529663%, 38.42926%, 27.449036%)" d="M 12.238281 12.804688 L 11.40625 12.804688 L 11.40625 13.617188 C 12.238281 13.617188 11.40625 13.617188 12.238281 13.617188 L 12.238281 12.804688 " fill-opacity="1" fill-rule="nonzero"/><path fill="rgb(83.529663%, 38.42926%, 27.449036%)" d="M 28.421875 13.617188 L 27.59375 13.617188 L 27.59375 14.433594 C 28.421875 14.433594 27.59375 14.433594 28.421875 14.433594 L 28.421875 13.617188 " fill-opacity="1" fill-rule="nonzero"/><path fill="rgb(83.529663%, 38.42926%, 27.449036%)" d="M 25.933594 16.878906 L 26.761719 16.878906 L 26.761719 16.0625 L 27.179688 16.0625 L 27.179688 15.25 L 25.519531 15.25 L 25.519531 16.0625 L 25.933594 16.0625 L 25.933594 16.878906 " fill-opacity="1" fill-rule="nonzero"/><path fill="rgb(83.529663%, 38.42926%, 27.449036%)" d="M 15.558594 12.804688 L 14.726562 12.804688 L 14.726562 13.617188 C 15.558594 13.617188 14.726562 13.617188 15.558594 13.617188 L 15.558594 12.804688 " fill-opacity="1" fill-rule="nonzero"/><path fill="rgb(83.529663%, 38.42926%, 27.449036%)" d="M 22.554688 10.753906 L 24.125 11.988281 L 28.566406 11.988281 L 30.140625 10.753906 L 30.496094 15.464844 C 30.484375 16.921875 28.628906 18.101562 26.347656 18.101562 C 24.058594 18.101562 22.199219 16.910156 22.195312 15.480469 Z M 26.347656 18.914062 C 29.09375 18.914062 31.328125 17.359375 31.328125 15.453125 L 30.855469 9.148438 L 28.277344 11.171875 L 24.417969 11.171875 L 21.839844 9.148438 L 21.367188 15.453125 C 21.367188 17.359375 23.601562 18.914062 26.347656 18.914062 " fill-opacity="1" fill-rule="nonzero"/><path fill="rgb(83.529663%, 38.42926%, 27.449036%)" d="M 25.101562 13.617188 L 24.273438 13.617188 L 24.273438 14.433594 C 25.101562 14.433594 24.273438 14.433594 25.101562 14.433594 L 25.101562 13.617188 " fill-opacity="1" fill-rule="nonzero"/><path fill="rgb(83.529663%, 38.42926%, 27.449036%)" d="M 19.707031 25.84375 L 25.101562 25.84375 L 25.101562 25.027344 L 19.707031 25.027344 L 19.707031 25.84375 " fill-opacity="1" fill-rule="nonzero"/><g clip-path="url(#clip-1)"><path fill="rgb(83.529663%, 38.42926%, 27.449036%)" d="M 7.257812 11.988281 L 7.257812 10.953125 L 10.195312 8.425781 L 11.824219 9.492188 L 12.027344 9.410156 C 12.351562 9.28125 12.6875 9.199219 13.023438 9.160156 C 13.679688 9.089844 14.320312 9.175781 14.9375 9.414062 L 15.140625 9.492188 L 16.769531 8.425781 L 19.707031 10.953125 L 19.707031 12.296875 C 19.707031 12.894531 19.3125 13.421875 18.78125 13.574219 C 18.726562 13.585938 18.675781 13.601562 18.621094 13.609375 C 18.617188 13.609375 18.613281 13.609375 18.609375 13.609375 C 18.554688 13.613281 18.5 13.617188 18.445312 13.617188 C 18.4375 13.617188 18.433594 13.617188 18.429688 13.617188 C 18.382812 13.613281 18.339844 13.609375 18.292969 13.605469 C 18.257812 13.597656 18.222656 13.59375 18.1875 13.582031 C 18.183594 13.582031 18.179688 13.582031 18.175781 13.582031 C 18.09375 13.5625 18.011719 13.53125 17.929688 13.496094 L 17.84375 13.453125 C 17.46875 13.242188 17.21875 12.847656 17.21875 12.394531 L 17.21875 9.949219 L 16.386719 9.949219 L 16.386719 12.394531 C 16.386719 13.074219 16.726562 13.671875 17.246094 14.042969 C 17.078125 14.375 16.75 14.761719 16.496094 15.0625 C 16.058594 15.582031 15.792969 15.894531 15.90625 16.246094 C 15.988281 16.507812 15.996094 16.78125 15.921875 17.058594 C 15.796875 17.535156 15.402344 17.925781 14.914062 18.050781 C 14.644531 18.121094 14.375 18.117188 14.117188 18.042969 C 14.046875 18.023438 13.972656 18.011719 13.898438 18 L 13.898438 16.472656 L 14.3125 16.472656 L 14.3125 15.65625 L 12.652344 15.65625 L 12.652344 16.472656 L 13.066406 16.472656 L 13.066406 18 C 12.992188 18.011719 12.921875 18.023438 12.847656 18.042969 C 12.589844 18.117188 12.324219 18.117188 12.050781 18.050781 C 11.566406 17.925781 11.171875 17.535156 11.042969 17.058594 C 10.96875 16.777344 10.976562 16.503906 11.0625 16.246094 C 11.175781 15.894531 10.910156 15.582031 10.472656 15.0625 C 10.21875 14.761719 9.890625 14.375 9.722656 14.039062 C 10.242188 13.667969 10.578125 13.070312 10.578125 12.394531 L 10.578125 9.949219 L 9.75 9.949219 L 9.75 12.394531 C 9.75 12.847656 9.496094 13.238281 9.128906 13.449219 L 9.039062 13.492188 C 8.957031 13.53125 8.878906 13.558594 8.796875 13.582031 C 8.792969 13.582031 8.792969 13.582031 8.792969 13.582031 C 8.753906 13.589844 8.714844 13.597656 8.679688 13.605469 C 8.636719 13.609375 8.589844 13.613281 8.546875 13.617188 C 8.539062 13.617188 8.527344 13.617188 8.519531 13.617188 C 8.46875 13.617188 8.414062 13.617188 8.359375 13.609375 C 8.355469 13.609375 8.355469 13.609375 8.355469 13.609375 C 8.300781 13.601562 8.246094 13.589844 8.191406 13.574219 C 7.65625 13.425781 7.257812 12.894531 7.257812 12.292969 Z M 8.21875 14.410156 C 8.230469 14.414062 8.242188 14.417969 8.253906 14.417969 C 8.257812 14.417969 8.261719 14.417969 8.265625 14.417969 C 8.292969 14.421875 8.328125 14.421875 8.355469 14.425781 C 8.394531 14.429688 8.433594 14.433594 8.472656 14.433594 C 8.484375 14.433594 8.492188 14.433594 8.503906 14.433594 C 8.519531 14.433594 8.535156 14.433594 8.546875 14.429688 C 8.589844 14.429688 8.628906 14.425781 8.667969 14.425781 C 8.699219 14.421875 8.730469 14.421875 8.761719 14.417969 C 8.785156 14.414062 8.808594 14.410156 8.832031 14.40625 C 8.878906 14.398438 8.921875 14.390625 8.96875 14.378906 C 9.179688 14.808594 9.535156 15.230469 9.835938 15.582031 C 9.980469 15.753906 10.167969 15.980469 10.242188 16.097656 C 10.136719 16.472656 10.136719 16.875 10.242188 17.261719 C 10.441406 18.023438 11.070312 18.640625 11.84375 18.835938 C 12.039062 18.886719 12.242188 18.914062 12.445312 18.914062 C 12.660156 18.914062 12.871094 18.886719 13.078125 18.828125 C 13.339844 18.753906 13.628906 18.753906 13.890625 18.828125 C 14.285156 18.9375 14.714844 18.945312 15.125 18.835938 C 15.894531 18.640625 16.523438 18.023438 16.726562 17.261719 C 16.828125 16.875 16.828125 16.472656 16.726562 16.097656 C 16.796875 15.980469 16.988281 15.753906 17.132812 15.585938 C 17.433594 15.230469 17.792969 14.808594 18 14.382812 C 18.046875 14.390625 18.089844 14.398438 18.132812 14.40625 C 18.160156 14.410156 18.183594 14.414062 18.210938 14.417969 C 18.242188 14.421875 18.269531 14.421875 18.296875 14.425781 C 18.339844 14.425781 18.378906 14.429688 18.417969 14.433594 C 18.433594 14.433594 18.449219 14.433594 18.460938 14.433594 C 18.472656 14.433594 18.484375 14.433594 18.496094 14.433594 C 18.535156 14.429688 18.570312 14.429688 18.609375 14.425781 C 18.640625 14.421875 18.671875 14.421875 18.707031 14.417969 C 18.707031 14.417969 18.710938 14.417969 18.71875 14.417969 C 18.730469 14.417969 18.742188 14.410156 18.753906 14.410156 C 19.761719 14.269531 20.539062 13.421875 20.539062 12.394531 L 20.539062 10.582031 L 16.835938 7.402344 L 15.035156 8.582031 C 14.355469 8.351562 13.648438 8.273438 12.929688 8.351562 C 12.589844 8.390625 12.253906 8.464844 11.925781 8.578125 L 10.128906 7.402344 L 6.429688 10.582031 L 6.429688 12.394531 C 6.429688 13.425781 7.210938 14.273438 8.21875 14.410156 " fill-opacity="1" fill-rule="nonzero"/></g><path fill="rgb(83.529663%, 38.42926%, 27.449036%)" d="M 23.441406 27.472656 L 25.101562 27.472656 L 25.101562 26.65625 L 23.441406 26.65625 L 23.441406 27.472656 " fill-opacity="1" fill-rule="nonzero"/><g clip-path="url(#clip-2)"><path fill="rgb(83.529663%, 38.42926%, 27.449036%)" d="M 31.828125 18.34375 L 28.285156 20.953125 L 9.472656 20.953125 L 5.929688 18.34375 L 5.433594 18.996094 L 8.917969 21.5625 L 8.917969 29.914062 L 9.75 29.914062 L 9.75 21.765625 L 28.007812 21.765625 L 28.007812 29.914062 L 28.835938 29.914062 L 28.835938 21.5625 L 32.324219 18.996094 L 31.828125 18.34375 " fill-opacity="1" fill-rule="nonzero"/></g><g clip-path="url(#clip-3)"><path fill="rgb(83.529663%, 38.42926%, 27.449036%)" d="M 13.238281 25.027344 L 14.3125 23.972656 L 15.386719 25.027344 Z M 15.558594 28.285156 L 13.066406 28.285156 L 13.066406 25.84375 L 15.558594 25.84375 Z M 11.234375 25.84375 L 12.238281 25.84375 L 12.238281 29.101562 L 16.386719 29.101562 L 16.386719 25.84375 L 17.390625 25.84375 L 14.3125 22.820312 L 11.234375 25.84375 " fill-opacity="1" fill-rule="nonzero"/></g><g clip-path="url(#clip-4)"><path fill="rgb(83.529663%, 38.42926%, 27.449036%)" d="M 19.707031 29.101562 L 23.859375 29.101562 L 23.859375 28.285156 L 19.707031 28.285156 L 19.707031 29.101562 " fill-opacity="1" fill-rule="nonzero"/></g><path fill="rgb(83.529663%, 38.42926%, 27.449036%)" d="M 19.707031 26.65625 L 19.707031 27.472656 L 22.613281 27.472656 L 22.613281 26.65625 L 19.707031 26.65625 " fill-opacity="1" fill-rule="nonzero"/></svg>