<?xml version="1.0" encoding="UTF-8"?><svg xmlns="http://www.w3.org/2000/svg" xmlns:xlink="http://www.w3.org/1999/xlink" contentScriptType="text/ecmascript" width="37.5" zoomAndPan="magnify" contentStyleType="text/css" viewBox="0 0 37.5 37.499999" height="37.499999" preserveAspectRatio="xMidYMid meet" version="1.0"><defs><clipPath id="clip-0"><path d="M 0 0 L 37.007812 0 L 37.007812 37.007812 L 0 37.007812 Z M 0 0 " clip-rule="nonzero"/></clipPath><clipPath id="clip-1"><path d="M 7 6.425781 L 30 6.425781 L 30 26 L 7 26 Z M 7 6.425781 " clip-rule="nonzero"/></clipPath><clipPath id="clip-2"><path d="M 20 22 L 31.765625 22 L 31.765625 33.425781 L 20 33.425781 Z M 20 22 " clip-rule="nonzero"/></clipPath><clipPath id="clip-3"><path d="M 5.515625 22 L 17 22 L 17 33.425781 L 5.515625 33.425781 Z M 5.515625 22 " clip-rule="nonzero"/></clipPath></defs><g clip-path="url(#clip-0)"><path fill="rgb(100%, 100%, 100%)" d="M 0 0 L 37.5 0 L 37.5 37.5 L 0 37.5 Z M 0 0 " fill-opacity="1" fill-rule="nonzero"/><path fill="rgb(100%, 100%, 100%)" d="M 0 0 L 37.5 0 L 37.5 37.5 L 0 37.5 Z M 0 0 " fill-opacity="1" fill-rule="nonzero"/></g><g clip-path="url(#clip-1)"><path fill="rgb(83.529663%, 38.42926%, 27.449036%)" d="M 29.457031 12.3125 C 29.457031 9.097656 27.222656 7.425781 25.132812 6.933594 C 23 6.425781 20.171875 6.972656 18.617188 9.246094 C 17.066406 6.972656 14.238281 6.425781 12.105469 6.933594 C 10.011719 7.425781 7.78125 9.097656 7.78125 12.3125 C 7.78125 15.726562 10.402344 18.972656 11.964844 20.601562 C 14.089844 22.820312 16.777344 24.710938 18.5 25.203125 C 18.539062 25.214844 18.578125 25.21875 18.617188 25.21875 C 18.65625 25.21875 18.691406 25.214844 18.722656 25.207031 C 22.304688 24.316406 29.457031 18.113281 29.457031 12.3125 Z M 16.449219 15.714844 C 16.445312 16.011719 16.425781 16.304688 16.390625 16.597656 L 15.628906 18.113281 C 15.566406 18.242188 15.566406 18.371094 15.628906 18.5 L 16.449219 20.136719 L 16.449219 23.222656 C 14.28125 21.777344 12.421875 20.011719 10.867188 17.925781 L 11.609375 16.820312 C 11.65625 16.746094 11.679688 16.667969 11.679688 16.578125 L 11.679688 13.5 L 12.308594 13.914062 C 12.382812 13.964844 12.460938 13.988281 12.546875 13.988281 L 15.582031 13.988281 C 15.671875 13.988281 15.75 13.964844 15.824219 13.914062 L 16.449219 13.5 Z M 18.648438 19.011719 C 18.628906 19.0625 18.617188 19.117188 18.617188 19.171875 L 18.617188 24.335938 C 18.167969 24.179688 17.734375 23.984375 17.316406 23.75 L 17.316406 20.035156 C 17.316406 19.96875 17.304688 19.902344 17.273438 19.84375 L 16.503906 18.308594 L 17.179688 16.953125 C 17.277344 16.546875 17.324219 16.132812 17.316406 15.714844 L 17.316406 12.691406 C 17.316406 12.519531 17.242188 12.390625 17.089844 12.308594 C 16.9375 12.230469 16.789062 12.234375 16.644531 12.332031 L 15.453125 13.125 L 12.679688 13.125 L 11.488281 12.332031 C 11.34375 12.234375 11.195312 12.230469 11.042969 12.308594 C 10.890625 12.390625 10.8125 12.519531 10.8125 12.691406 L 10.8125 16.449219 L 10.339844 17.160156 C 9.320312 15.582031 8.648438 13.910156 8.648438 12.3125 C 8.648438 9.601562 10.535156 8.191406 12.304688 7.773438 C 12.738281 7.671875 13.179688 7.621094 13.625 7.621094 C 14.097656 7.605469 14.558594 7.65625 15.015625 7.769531 C 15.476562 7.882812 15.90625 8.058594 16.316406 8.296875 C 16.722656 8.53125 17.089844 8.820312 17.414062 9.160156 C 17.742188 9.5 18.011719 9.875 18.230469 10.292969 C 18.273438 10.359375 18.328125 10.414062 18.394531 10.453125 C 18.464844 10.492188 18.539062 10.511719 18.617188 10.511719 C 18.699219 10.511719 18.773438 10.492188 18.839844 10.453125 C 18.910156 10.414062 18.964844 10.359375 19.007812 10.292969 C 20.222656 7.886719 22.929688 7.300781 24.933594 7.773438 C 26.703125 8.191406 28.589844 9.601562 28.589844 12.3125 C 28.589844 14.125 27.785156 16.03125 26.59375 17.78125 L 25.988281 16.878906 L 25.988281 15.535156 L 27.289062 14.792969 C 27.460938 14.695312 27.535156 14.546875 27.5 14.351562 L 27.117188 11.976562 C 27.046875 11.65625 26.855469 11.445312 26.542969 11.339844 L 24.824219 10.769531 C 24.78125 10.753906 24.734375 10.746094 24.6875 10.746094 L 20.785156 10.746094 C 20.738281 10.746094 20.695312 10.753906 20.648438 10.769531 L 18.933594 11.339844 C 18.613281 11.449219 18.421875 11.667969 18.355469 12 L 17.972656 14.351562 C 17.941406 14.546875 18.011719 14.695312 18.1875 14.792969 L 19.484375 15.535156 L 19.484375 16.929688 Z M 19.484375 24.023438 L 19.484375 19.253906 L 20.320312 17.171875 C 20.34375 17.121094 20.351562 17.066406 20.351562 17.011719 L 20.351562 15.28125 C 20.351562 15.117188 20.28125 14.992188 20.132812 14.90625 L 18.878906 14.191406 L 19.207031 12.160156 L 20.855469 11.609375 L 24.621094 11.609375 L 26.265625 12.136719 L 26.597656 14.191406 L 25.339844 14.90625 C 25.195312 14.992188 25.121094 15.117188 25.121094 15.28125 L 25.121094 17.011719 C 25.121094 17.097656 25.148438 17.179688 25.195312 17.25 L 26.050781 18.53125 C 24.132812 21.050781 21.492188 23.144531 19.484375 24.023438 Z M 19.484375 24.023438 " fill-opacity="1" fill-rule="nonzero"/></g><g clip-path="url(#clip-2)"><path fill="rgb(83.529663%, 38.42926%, 27.449036%)" d="M 30.351562 23.851562 C 29.980469 23.859375 29.671875 24.003906 29.429688 24.285156 L 29.300781 24.4375 L 29.332031 24.257812 C 29.378906 23.96875 29.320312 23.703125 29.152344 23.460938 C 28.988281 23.21875 28.761719 23.070312 28.472656 23.007812 C 28.183594 22.949219 27.914062 22.996094 27.664062 23.152344 C 27.417969 23.308594 27.257812 23.53125 27.183594 23.8125 L 26.886719 24.996094 L 25.777344 27.210938 L 25.066406 27.449219 L 25.261719 27.109375 C 25.332031 26.972656 25.375 26.824219 25.386719 26.667969 C 25.402344 26.511719 25.386719 26.359375 25.34375 26.207031 C 25.300781 26.058594 25.230469 25.921875 25.132812 25.796875 C 25.039062 25.671875 24.921875 25.570312 24.789062 25.492188 C 24.652344 25.410156 24.507812 25.359375 24.355469 25.332031 C 24.199219 25.304688 24.042969 25.308594 23.890625 25.339844 C 23.738281 25.375 23.59375 25.433594 23.464844 25.519531 C 23.332031 25.605469 23.222656 25.710938 23.132812 25.839844 C 23.132812 25.839844 21.601562 27.988281 21.5625 28.046875 L 21.558594 28.050781 C 20.628906 29.355469 20.710938 31.261719 20.773438 32.792969 C 20.785156 33.015625 20.792969 33.230469 20.800781 33.4375 L 21.667969 33.414062 C 21.660156 33.203125 21.652344 32.984375 21.640625 32.753906 C 21.582031 31.355469 21.507812 29.617188 22.265625 28.550781 L 22.261719 28.546875 C 22.398438 28.363281 22.757812 27.859375 23.839844 26.339844 C 23.914062 26.230469 24.015625 26.179688 24.148438 26.179688 C 24.289062 26.175781 24.394531 26.238281 24.46875 26.355469 C 24.542969 26.46875 24.550781 26.582031 24.5 26.703125 L 23.570312 28.300781 C 23.453125 28.503906 23.394531 28.71875 23.394531 28.949219 L 24.261719 28.949219 C 24.261719 28.875 24.28125 28.800781 24.320312 28.734375 L 24.414062 28.574219 L 26.371094 27.925781 L 26.382812 27.933594 L 26.390625 27.917969 L 27.574219 27.523438 C 27.78125 27.445312 27.960938 27.324219 28.105469 27.15625 L 30.089844 24.847656 C 30.164062 24.761719 30.257812 24.71875 30.371094 24.714844 C 30.488281 24.710938 30.589844 24.75 30.667969 24.839844 C 30.804688 25.007812 30.808594 25.175781 30.675781 25.347656 L 28.261719 28.78125 C 28.203125 28.867188 28.132812 28.945312 28.054688 29.015625 L 26.414062 30.445312 C 25.84375 30.941406 24.523438 32.226562 24.605469 33.386719 L 25.472656 33.324219 C 25.425781 32.691406 26.257812 31.726562 26.984375 31.09375 L 28.625 29.664062 C 28.757812 29.550781 28.871094 29.421875 28.972656 29.277344 L 31.386719 25.84375 C 31.5625 25.601562 31.640625 25.328125 31.625 25.03125 C 31.609375 24.730469 31.5 24.46875 31.296875 24.246094 C 31.042969 23.96875 30.726562 23.835938 30.351562 23.851562 Z M 28.210938 25.703125 L 27.445312 26.59375 C 27.402344 26.644531 27.347656 26.683594 27.285156 26.710938 L 26.941406 26.824219 L 27.683594 25.339844 C 27.699219 25.3125 27.710938 25.28125 27.71875 25.25 L 28.027344 24.023438 C 28.054688 23.910156 28.128906 23.851562 28.25 23.851562 C 28.320312 23.851562 28.378906 23.878906 28.425781 23.933594 C 28.46875 23.984375 28.488281 24.046875 28.476562 24.117188 Z M 28.210938 25.703125 " fill-opacity="1" fill-rule="nonzero"/></g><g clip-path="url(#clip-3)"><path fill="rgb(83.529663%, 38.42926%, 27.449036%)" d="M 14.121094 25.839844 C 14.03125 25.710938 13.917969 25.601562 13.785156 25.515625 C 13.652344 25.429688 13.507812 25.371094 13.355469 25.339844 C 13.199219 25.308594 13.042969 25.304688 12.886719 25.332031 C 12.734375 25.359375 12.585938 25.414062 12.453125 25.496094 C 12.316406 25.578125 12.203125 25.683594 12.109375 25.808594 C 12.011719 25.9375 11.945312 26.074219 11.902344 26.226562 C 11.859375 26.378906 11.847656 26.535156 11.867188 26.691406 C 11.882812 26.847656 11.929688 26.996094 12.003906 27.132812 L 12.183594 27.449219 L 11.476562 27.210938 L 10.363281 24.996094 L 10.066406 23.8125 C 9.996094 23.53125 9.835938 23.308594 9.585938 23.152344 C 9.335938 22.996094 9.066406 22.949219 8.78125 23.007812 C 8.492188 23.070312 8.265625 23.21875 8.097656 23.460938 C 7.933594 23.703125 7.871094 23.96875 7.921875 24.257812 L 7.949219 24.433594 L 7.820312 24.285156 C 7.707031 24.152344 7.566406 24.046875 7.40625 23.96875 C 7.246094 23.894531 7.074219 23.855469 6.898438 23.851562 C 6.71875 23.847656 6.546875 23.878906 6.382812 23.949219 C 6.21875 24.015625 6.078125 24.117188 5.957031 24.246094 C 5.753906 24.46875 5.644531 24.730469 5.625 25.03125 C 5.609375 25.328125 5.691406 25.601562 5.867188 25.84375 L 8.277344 29.277344 C 8.378906 29.421875 8.496094 29.550781 8.628906 29.664062 L 10.265625 31.09375 C 10.992188 31.726562 11.828125 32.691406 11.78125 33.324219 L 12.644531 33.386719 C 12.730469 32.226562 11.410156 30.941406 10.835938 30.445312 L 9.199219 29.015625 C 9.121094 28.945312 9.050781 28.867188 8.988281 28.78125 L 6.578125 25.347656 C 6.445312 25.175781 6.449219 25.007812 6.585938 24.839844 C 6.664062 24.753906 6.761719 24.710938 6.875 24.714844 C 6.992188 24.714844 7.089844 24.761719 7.164062 24.847656 L 9.148438 27.15625 C 9.296875 27.328125 9.476562 27.453125 9.695312 27.53125 L 10.859375 27.917969 L 10.867188 27.933594 L 10.882812 27.925781 L 12.839844 28.574219 L 12.929688 28.734375 C 12.96875 28.832031 12.988281 28.929688 12.988281 29.035156 L 13.855469 29.035156 C 13.855469 28.777344 13.796875 28.53125 13.683594 28.300781 L 12.765625 26.722656 C 12.734375 26.664062 12.722656 26.605469 12.726562 26.539062 C 12.730469 26.472656 12.746094 26.414062 12.78125 26.355469 C 12.816406 26.300781 12.863281 26.257812 12.917969 26.226562 C 12.976562 26.195312 13.039062 26.179688 13.105469 26.179688 C 13.234375 26.179688 13.335938 26.230469 13.414062 26.339844 C 14.585938 27.988281 14.894531 28.425781 14.988281 28.550781 L 14.984375 28.550781 C 15.746094 29.617188 15.671875 31.355469 15.609375 32.757812 C 15.601562 32.984375 15.589844 33.203125 15.585938 33.414062 L 16.453125 33.4375 C 16.457031 33.234375 16.46875 33.015625 16.476562 32.792969 C 16.542969 31.261719 16.625 29.355469 15.691406 28.050781 C 15.667969 28.015625 14.121094 25.839844 14.121094 25.839844 Z M 9.984375 26.714844 C 9.914062 26.691406 9.855469 26.648438 9.804688 26.59375 L 9.042969 25.703125 L 8.777344 24.117188 C 8.765625 24.046875 8.78125 23.984375 8.828125 23.929688 C 8.875 23.878906 8.933594 23.851562 9.003906 23.851562 C 9.121094 23.851562 9.195312 23.90625 9.226562 24.023438 L 9.535156 25.25 C 9.542969 25.28125 9.550781 25.3125 9.566406 25.339844 L 10.3125 26.824219 Z M 9.984375 26.714844 " fill-opacity="1" fill-rule="nonzero"/></g><path fill="rgb(83.529663%, 38.42926%, 27.449036%)" d="M 13.414062 15.222656 C 13.414062 15.34375 13.375 15.445312 13.289062 15.53125 C 13.203125 15.613281 13.101562 15.65625 12.980469 15.65625 C 12.863281 15.65625 12.761719 15.613281 12.675781 15.53125 C 12.589844 15.445312 12.546875 15.34375 12.546875 15.222656 C 12.546875 15.105469 12.589844 15.003906 12.675781 14.917969 C 12.761719 14.835938 12.863281 14.792969 12.980469 14.792969 C 13.101562 14.792969 13.203125 14.835938 13.289062 14.917969 C 13.375 15.003906 13.414062 15.105469 13.414062 15.222656 Z M 13.414062 15.222656 " fill-opacity="1" fill-rule="nonzero"/><path fill="rgb(83.529663%, 38.42926%, 27.449036%)" d="M 15.582031 15.222656 C 15.582031 15.34375 15.542969 15.445312 15.457031 15.53125 C 15.371094 15.613281 15.269531 15.65625 15.148438 15.65625 C 15.03125 15.65625 14.929688 15.613281 14.84375 15.53125 C 14.757812 15.445312 14.714844 15.34375 14.714844 15.222656 C 14.714844 15.105469 14.757812 15.003906 14.84375 14.917969 C 14.929688 14.835938 15.03125 14.792969 15.148438 14.792969 C 15.269531 14.792969 15.371094 14.835938 15.457031 14.917969 C 15.542969 15.003906 15.582031 15.105469 15.582031 15.222656 Z M 15.582031 15.222656 " fill-opacity="1" fill-rule="nonzero"/><path fill="rgb(83.529663%, 38.42926%, 27.449036%)" d="M 21.980469 13.769531 C 21.980469 13.890625 21.9375 13.992188 21.851562 14.078125 C 21.765625 14.160156 21.664062 14.203125 21.546875 14.203125 C 21.425781 14.203125 21.324219 14.160156 21.238281 14.078125 C 21.152344 13.992188 21.113281 13.890625 21.113281 13.769531 C 21.113281 13.652344 21.152344 13.550781 21.238281 13.464844 C 21.324219 13.382812 21.425781 13.339844 21.546875 13.339844 C 21.664062 13.339844 21.765625 13.382812 21.851562 13.464844 C 21.9375 13.550781 21.980469 13.652344 21.980469 13.769531 Z M 21.980469 13.769531 " fill-opacity="1" fill-rule="nonzero"/><path fill="rgb(83.529663%, 38.42926%, 27.449036%)" d="M 24.582031 13.769531 C 24.582031 13.890625 24.539062 13.992188 24.453125 14.078125 C 24.367188 14.160156 24.265625 14.203125 24.148438 14.203125 C 24.027344 14.203125 23.925781 14.160156 23.839844 14.078125 C 23.753906 13.992188 23.714844 13.890625 23.714844 13.769531 C 23.714844 13.652344 23.753906 13.550781 23.839844 13.464844 C 23.925781 13.382812 24.027344 13.339844 24.148438 13.339844 C 24.265625 13.339844 24.367188 13.382812 24.453125 13.464844 C 24.539062 13.550781 24.582031 13.652344 24.582031 13.769531 Z M 24.582031 13.769531 " fill-opacity="1" fill-rule="nonzero"/><path fill="rgb(83.529663%, 38.42926%, 27.449036%)" d="M 23.386719 15.5 C 23.386719 15.617188 23.335938 15.71875 23.230469 15.804688 C 23.125 15.890625 22.996094 15.929688 22.847656 15.929688 C 22.695312 15.929688 22.570312 15.890625 22.464844 15.804688 C 22.355469 15.71875 22.304688 15.617188 22.304688 15.5 C 22.304688 15.378906 22.355469 15.277344 22.464844 15.195312 C 22.570312 15.109375 22.695312 15.066406 22.847656 15.066406 C 22.996094 15.066406 23.125 15.109375 23.230469 15.195312 C 23.335938 15.277344 23.386719 15.378906 23.386719 15.5 Z M 23.386719 15.5 " fill-opacity="1" fill-rule="nonzero"/></svg>