<?xml version="1.0" encoding="UTF-8"?><svg xmlns="http://www.w3.org/2000/svg" xmlns:xlink="http://www.w3.org/1999/xlink" contentScriptType="text/ecmascript" width="37.5" zoomAndPan="magnify" contentStyleType="text/css" viewBox="0 0 37.5 37.499999" height="37.499999" preserveAspectRatio="xMidYMid meet" version="1.0"><defs><clipPath id="clip-0"><path d="M 0 0 L 37.007812 0 L 37.007812 37.007812 L 0 37.007812 Z M 0 0 " clip-rule="nonzero"/></clipPath><clipPath id="clip-1"><path d="M 5.152344 7.210938 L 32.152344 7.210938 L 32.152344 31.960938 L 5.152344 31.960938 Z M 5.152344 7.210938 " clip-rule="nonzero"/></clipPath></defs><g clip-path="url(#clip-0)"><path fill="rgb(100%, 100%, 100%)" d="M 0 0 L 37.5 0 L 37.5 37.5 L 0 37.5 Z M 0 0 " fill-opacity="1" fill-rule="nonzero"/><path fill="rgb(100%, 100%, 100%)" d="M 0 0 L 37.5 0 L 37.5 37.5 L 0 37.5 Z M 0 0 " fill-opacity="1" fill-rule="nonzero"/></g><g clip-path="url(#clip-1)"><path fill="rgb(83.529663%, 38.42926%, 27.449036%)" d="M 26.625 7.804688 C 23.996094 7.214844 20.507812 8.007812 18.652344 11.023438 C 16.792969 8.007812 13.304688 7.214844 10.679688 7.804688 C 7.320312 8.558594 5.152344 11.335938 5.152344 14.878906 C 5.160156 15.921875 5.316406 16.941406 5.617188 17.9375 C 7.597656 24.695312 15.207031 30.921875 18.527344 31.925781 C 18.566406 31.9375 18.609375 31.941406 18.652344 31.941406 C 18.691406 31.941406 18.726562 31.9375 18.765625 31.929688 C 23.230469 30.75 32.152344 22.550781 32.152344 14.878906 C 32.152344 11.335938 29.984375 8.558594 26.625 7.804688 Z M 14.046875 28.15625 C 11.339844 25.894531 8.46875 22.628906 7.007812 19.214844 L 7.011719 19.21875 C 7.824219 19.914062 8.695312 20.523438 9.628906 21.042969 L 11.226562 21.941406 C 11.316406 21.988281 11.414062 22.007812 11.515625 21.988281 L 14.554688 21.46875 C 14.6875 21.476562 14.777344 21.542969 14.824219 21.664062 C 14.835938 21.703125 14.839844 21.738281 14.84375 21.777344 C 14.84375 21.945312 14.761719 22.046875 14.601562 22.082031 L 13.339844 22.363281 C 13.164062 22.402344 13.054688 22.507812 13.011719 22.6875 C 12.96875 22.863281 13.019531 23.007812 13.160156 23.125 L 16.097656 25.488281 C 16.117188 25.503906 16.144531 25.519531 16.167969 25.535156 C 16.253906 25.578125 16.316406 25.644531 16.355469 25.730469 C 16.417969 25.921875 16.371094 26.082031 16.210938 26.207031 L 14.300781 24.753906 L 13.773438 25.445312 L 15.554688 26.800781 L 15.128906 27.183594 L 13.472656 25.78125 L 12.90625 26.445312 L 14.476562 27.773438 Z M 20.582031 30.210938 L 20.25 29.863281 L 21.914062 28.726562 L 21.421875 28.011719 L 19.632812 29.230469 L 19.339844 28.933594 L 21.078125 27.644531 L 20.558594 26.949219 L 18.730469 28.304688 C 18.570312 28.175781 18.519531 28.019531 18.582031 27.824219 C 18.621094 27.734375 18.683594 27.667969 18.769531 27.621094 C 18.792969 27.609375 18.816406 27.59375 18.835938 27.574219 L 21.542969 25.328125 C 21.683594 25.210938 21.730469 25.0625 21.6875 24.886719 C 21.644531 24.710938 21.53125 24.605469 21.355469 24.566406 L 20.09375 24.304688 C 19.917969 24.269531 19.835938 24.160156 19.847656 23.980469 C 19.859375 23.804688 19.953125 23.707031 20.132812 23.691406 L 23.179688 24.175781 C 23.28125 24.191406 23.378906 24.175781 23.464844 24.121094 L 25.050781 23.210938 C 25.976562 22.675781 26.84375 22.058594 27.652344 21.355469 L 30.472656 18.890625 C 28.644531 23.675781 24.085938 28.242188 20.582031 30.210938 Z M 30.96875 17.304688 L 27.078125 20.699219 C 26.3125 21.367188 25.492188 21.953125 24.613281 22.457031 L 23.164062 23.292969 L 20.226562 22.824219 C 20.203125 22.824219 20.179688 22.820312 20.160156 22.820312 C 19.855469 22.820312 19.589844 22.921875 19.367188 23.125 C 19.140625 23.328125 19.011719 23.578125 18.980469 23.878906 C 18.949219 24.179688 19.023438 24.453125 19.203125 24.695312 C 19.382812 24.941406 19.621094 25.09375 19.914062 25.15625 L 20.292969 25.234375 L 18.308594 26.882812 C 18.132812 26.988281 17.988281 27.125 17.878906 27.296875 C 17.769531 27.46875 17.707031 27.660156 17.6875 27.863281 C 17.671875 28.066406 17.703125 28.261719 17.78125 28.449219 C 17.855469 28.640625 17.972656 28.800781 18.128906 28.933594 L 19.773438 30.625 C 19.414062 30.796875 19.042969 30.941406 18.660156 31.054688 C 17.226562 30.484375 15.914062 29.703125 14.730469 28.710938 L 16.789062 26.859375 C 17.003906 26.675781 17.144531 26.449219 17.210938 26.171875 C 17.277344 25.898438 17.257812 25.632812 17.148438 25.371094 C 17.03125 25.117188 16.855469 24.925781 16.613281 24.785156 L 14.414062 23.015625 L 14.789062 22.933594 C 15.058594 22.871094 15.28125 22.734375 15.457031 22.519531 C 15.628906 22.300781 15.714844 22.054688 15.710938 21.777344 C 15.710938 21.648438 15.691406 21.519531 15.648438 21.394531 C 15.570312 21.15625 15.425781 20.964844 15.21875 20.820312 C 15.015625 20.671875 14.785156 20.601562 14.535156 20.601562 C 14.507812 20.601562 14.476562 20.601562 14.449219 20.605469 L 11.519531 21.105469 L 10.054688 20.289062 C 9.171875 19.792969 8.347656 19.214844 7.578125 18.558594 L 6.421875 17.574219 C 6.167969 16.695312 6.03125 15.796875 6.023438 14.878906 C 6.023438 11.089844 8.527344 9.179688 10.871094 8.652344 C 11.359375 8.542969 11.851562 8.492188 12.351562 8.492188 C 12.96875 8.476562 13.570312 8.550781 14.164062 8.710938 C 14.761719 8.871094 15.320312 9.113281 15.84375 9.433594 C 16.367188 9.757812 16.835938 10.148438 17.246094 10.605469 C 17.65625 11.0625 17.996094 11.566406 18.257812 12.121094 C 18.335938 12.285156 18.46875 12.367188 18.652344 12.367188 C 18.835938 12.367188 18.96875 12.285156 19.046875 12.121094 C 20.558594 8.9375 23.9375 8.089844 26.433594 8.652344 C 28.777344 9.179688 31.28125 11.089844 31.28125 14.878906 C 31.273438 15.699219 31.171875 16.507812 30.96875 17.304688 Z M 30.96875 17.304688 " fill-opacity="1" fill-rule="nonzero"/></g><path fill="rgb(83.529663%, 38.42926%, 27.449036%)" d="M 17.253906 16.496094 L 17.347656 12.40625 C 17.351562 12.230469 17.273438 12.097656 17.121094 12.015625 C 16.964844 11.929688 16.816406 11.9375 16.667969 12.035156 L 15.472656 12.828125 L 12.6875 12.828125 L 11.492188 12.035156 C 11.347656 11.9375 11.195312 11.929688 11.042969 12.011719 C 10.890625 12.09375 10.8125 12.222656 10.8125 12.394531 L 10.8125 16.234375 L 9.964844 18.773438 C 9.949219 18.816406 9.941406 18.863281 9.941406 18.910156 L 9.941406 19.78125 L 10.8125 19.78125 L 10.8125 18.980469 L 11.664062 16.441406 C 11.675781 16.398438 11.683594 16.351562 11.683594 16.304688 L 11.683594 13.207031 L 12.3125 13.625 C 12.386719 13.675781 12.46875 13.699219 12.554688 13.699219 L 15.605469 13.699219 C 15.691406 13.699219 15.773438 13.675781 15.84375 13.625 L 16.457031 13.21875 L 16.386719 16.382812 L 15.648438 17.847656 C 15.585938 17.976562 15.585938 18.105469 15.648438 18.238281 L 16.476562 19.882812 L 16.476562 21.953125 L 17.347656 21.953125 L 17.347656 19.78125 C 17.347656 19.710938 17.332031 19.648438 17.300781 19.585938 L 16.527344 18.042969 L 17.207031 16.683594 C 17.238281 16.625 17.253906 16.5625 17.253906 16.496094 Z M 17.253906 16.496094 " fill-opacity="1" fill-rule="nonzero"/><path fill="rgb(83.529663%, 38.42926%, 27.449036%)" d="M 13.425781 15 C 13.425781 15.121094 13.382812 15.222656 13.300781 15.308594 C 13.214844 15.394531 13.113281 15.4375 12.992188 15.4375 C 12.871094 15.4375 12.769531 15.394531 12.683594 15.308594 C 12.597656 15.222656 12.554688 15.121094 12.554688 15 C 12.554688 14.882812 12.597656 14.777344 12.683594 14.695312 C 12.769531 14.609375 12.871094 14.566406 12.992188 14.566406 C 13.113281 14.566406 13.214844 14.609375 13.300781 14.695312 C 13.382812 14.777344 13.425781 14.882812 13.425781 15 Z M 13.425781 15 " fill-opacity="1" fill-rule="nonzero"/><path fill="rgb(83.529663%, 38.42926%, 27.449036%)" d="M 15.605469 15 C 15.605469 15.121094 15.5625 15.222656 15.476562 15.308594 C 15.390625 15.394531 15.289062 15.4375 15.167969 15.4375 C 15.046875 15.4375 14.945312 15.394531 14.859375 15.308594 C 14.777344 15.222656 14.734375 15.121094 14.734375 15 C 14.734375 14.882812 14.777344 14.777344 14.859375 14.695312 C 14.945312 14.609375 15.046875 14.566406 15.167969 14.566406 C 15.289062 14.566406 15.390625 14.609375 15.476562 14.695312 C 15.5625 14.777344 15.605469 14.882812 15.605469 15 Z M 15.605469 15 " fill-opacity="1" fill-rule="nonzero"/><path fill="rgb(83.529663%, 38.42926%, 27.449036%)" d="M 28.570312 12.121094 L 26.847656 11.546875 C 26.800781 11.535156 26.757812 11.527344 26.707031 11.527344 L 22.789062 11.527344 C 22.742188 11.527344 22.695312 11.535156 22.652344 11.546875 L 20.929688 12.121094 C 20.605469 12.230469 20.414062 12.453125 20.347656 12.785156 L 19.964844 15.148438 C 19.933594 15.347656 20.003906 15.496094 20.179688 15.597656 L 21.484375 16.339844 L 21.484375 17.722656 L 20.441406 19.804688 C 20.410156 19.863281 20.394531 19.929688 20.394531 19.996094 L 20.394531 21.953125 L 21.265625 21.953125 L 21.265625 20.097656 L 22.308594 18.019531 C 22.339844 17.957031 22.355469 17.894531 22.355469 17.824219 L 22.355469 16.085938 C 22.355469 15.917969 22.28125 15.792969 22.132812 15.710938 L 20.871094 14.992188 L 21.203125 12.945312 L 22.859375 12.394531 L 26.640625 12.394531 L 28.289062 12.925781 L 28.625 14.992188 L 27.363281 15.710938 C 27.21875 15.792969 27.144531 15.917969 27.144531 16.085938 L 27.144531 17.824219 C 27.144531 17.921875 27.171875 18.007812 27.230469 18.085938 L 27.882812 18.953125 L 28.582031 18.433594 L 28.015625 17.679688 L 28.015625 16.339844 L 29.320312 15.597656 C 29.496094 15.496094 29.566406 15.347656 29.535156 15.148438 L 29.148438 12.765625 C 29.078125 12.441406 28.882812 12.226562 28.570312 12.121094 Z M 28.570312 12.121094 " fill-opacity="1" fill-rule="nonzero"/><path fill="rgb(83.529663%, 38.42926%, 27.449036%)" d="M 23.878906 14.566406 C 23.878906 14.6875 23.835938 14.789062 23.75 14.875 C 23.664062 14.960938 23.5625 15 23.441406 15 C 23.324219 15 23.21875 14.960938 23.136719 14.875 C 23.050781 14.789062 23.007812 14.6875 23.007812 14.566406 C 23.007812 14.445312 23.050781 14.34375 23.136719 14.261719 C 23.21875 14.175781 23.324219 14.132812 23.441406 14.132812 C 23.5625 14.132812 23.664062 14.175781 23.75 14.261719 C 23.835938 14.34375 23.878906 14.445312 23.878906 14.566406 Z M 23.878906 14.566406 " fill-opacity="1" fill-rule="nonzero"/><path fill="rgb(83.529663%, 38.42926%, 27.449036%)" d="M 26.492188 14.566406 C 26.492188 14.6875 26.449219 14.789062 26.363281 14.875 C 26.277344 14.960938 26.175781 15 26.054688 15 C 25.933594 15 25.832031 14.960938 25.746094 14.875 C 25.664062 14.789062 25.621094 14.6875 25.621094 14.566406 C 25.621094 14.445312 25.664062 14.34375 25.746094 14.261719 C 25.832031 14.175781 25.933594 14.132812 26.054688 14.132812 C 26.175781 14.132812 26.277344 14.175781 26.363281 14.261719 C 26.449219 14.34375 26.492188 14.445312 26.492188 14.566406 Z M 26.492188 14.566406 " fill-opacity="1" fill-rule="nonzero"/><path fill="rgb(83.529663%, 38.42926%, 27.449036%)" d="M 25.292969 16.304688 C 25.292969 16.425781 25.242188 16.527344 25.132812 16.613281 C 25.027344 16.695312 24.898438 16.738281 24.75 16.738281 C 24.597656 16.738281 24.46875 16.695312 24.363281 16.613281 C 24.257812 16.527344 24.203125 16.425781 24.203125 16.304688 C 24.203125 16.183594 24.257812 16.082031 24.363281 15.996094 C 24.46875 15.914062 24.597656 15.871094 24.75 15.871094 C 24.898438 15.871094 25.027344 15.914062 25.132812 15.996094 C 25.242188 16.082031 25.292969 16.183594 25.292969 16.304688 Z M 25.292969 16.304688 " fill-opacity="1" fill-rule="nonzero"/></svg>