<?xml version="1.0" encoding="UTF-8"?><svg xmlns="http://www.w3.org/2000/svg" xmlns:xlink="http://www.w3.org/1999/xlink" contentScriptType="text/ecmascript" width="37.5" zoomAndPan="magnify" contentStyleType="text/css" viewBox="0 0 37.5 37.499999" height="37.499999" preserveAspectRatio="xMidYMid meet" version="1.0"><defs><clipPath id="clip-0"><path d="M 0 0 L 37.007812 0 L 37.007812 37.007812 L 0 37.007812 Z M 0 0 " clip-rule="nonzero"/></clipPath><clipPath id="clip-1"><path d="M 4.738281 7.160156 L 32.488281 7.160156 L 32.488281 33.410156 L 4.738281 33.410156 Z M 4.738281 7.160156 " clip-rule="nonzero"/></clipPath></defs><g clip-path="url(#clip-0)"><path fill="rgb(100%, 100%, 100%)" d="M 0 0 L 37.5 0 L 37.5 37.5 L 0 37.5 Z M 0 0 " fill-opacity="1" fill-rule="nonzero"/><path fill="rgb(100%, 100%, 100%)" d="M 0 0 L 37.5 0 L 37.5 37.5 L 0 37.5 Z M 0 0 " fill-opacity="1" fill-rule="nonzero"/></g><g clip-path="url(#clip-1)"><path fill="rgb(83.529663%, 38.42926%, 27.449036%)" d="M 28.386719 31.855469 L 28.386719 29.738281 L 30.742188 29.738281 L 30.183594 30.242188 Z M 5.707031 14.996094 L 31.515625 14.996094 L 31.515625 28.777344 L 27.90625 28.777344 C 27.636719 28.777344 27.421875 28.992188 27.421875 29.257812 L 27.421875 32.453125 L 5.707031 32.453125 Z M 26.40625 11.035156 L 10.882812 13.234375 L 26.40625 8.324219 Z M 28.960938 14.039062 L 12.050781 14.039062 L 28.960938 11.644531 Z M 32.410156 29.507812 C 32.410156 29.503906 32.410156 29.5 32.414062 29.5 C 32.425781 29.480469 32.433594 29.460938 32.441406 29.441406 C 32.445312 29.4375 32.445312 29.433594 32.445312 29.425781 C 32.453125 29.410156 32.457031 29.394531 32.464844 29.378906 C 32.464844 29.375 32.464844 29.371094 32.464844 29.363281 C 32.472656 29.34375 32.476562 29.324219 32.476562 29.300781 C 32.476562 29.296875 32.476562 29.292969 32.476562 29.289062 C 32.476562 29.277344 32.480469 29.269531 32.480469 29.257812 L 32.480469 14.515625 C 32.480469 14.253906 32.265625 14.039062 31.996094 14.039062 L 29.925781 14.039062 L 29.925781 11.09375 C 29.925781 10.953125 29.863281 10.820312 29.757812 10.730469 C 29.652344 10.636719 29.511719 10.597656 29.375 10.617188 L 27.371094 10.898438 L 27.371094 7.667969 C 27.371094 7.511719 27.296875 7.371094 27.171875 7.277344 C 27.050781 7.1875 26.890625 7.164062 26.742188 7.207031 L 5.085938 14.058594 C 5.082031 14.058594 5.078125 14.0625 5.074219 14.0625 C 5.066406 14.066406 5.058594 14.066406 5.050781 14.070312 C 5.046875 14.074219 5.042969 14.074219 5.035156 14.078125 C 5.035156 14.078125 5.03125 14.078125 5.03125 14.078125 C 5.023438 14.082031 5.015625 14.085938 5.007812 14.089844 C 5.003906 14.09375 5 14.09375 4.996094 14.097656 C 4.992188 14.097656 4.988281 14.101562 4.988281 14.101562 C 4.980469 14.105469 4.972656 14.109375 4.964844 14.113281 C 4.964844 14.117188 4.960938 14.117188 4.957031 14.121094 C 4.953125 14.125 4.949219 14.125 4.945312 14.128906 C 4.941406 14.132812 4.933594 14.136719 4.929688 14.140625 C 4.925781 14.144531 4.921875 14.144531 4.917969 14.148438 C 4.914062 14.152344 4.914062 14.152344 4.910156 14.15625 C 4.902344 14.160156 4.898438 14.167969 4.894531 14.171875 C 4.890625 14.175781 4.886719 14.175781 4.882812 14.179688 C 4.882812 14.183594 4.878906 14.1875 4.875 14.191406 C 4.871094 14.195312 4.867188 14.199219 4.863281 14.203125 C 4.859375 14.207031 4.855469 14.210938 4.855469 14.214844 C 4.851562 14.21875 4.847656 14.222656 4.847656 14.222656 C 4.84375 14.230469 4.839844 14.234375 4.835938 14.238281 C 4.832031 14.242188 4.828125 14.25 4.824219 14.253906 C 4.824219 14.257812 4.820312 14.257812 4.820312 14.261719 C 4.816406 14.265625 4.8125 14.273438 4.808594 14.277344 C 4.808594 14.28125 4.804688 14.289062 4.800781 14.292969 C 4.800781 14.296875 4.796875 14.296875 4.796875 14.300781 C 4.792969 14.308594 4.792969 14.3125 4.789062 14.320312 C 4.785156 14.324219 4.785156 14.328125 4.78125 14.335938 C 4.78125 14.339844 4.78125 14.339844 4.777344 14.34375 C 4.777344 14.351562 4.773438 14.355469 4.773438 14.363281 C 4.769531 14.367188 4.769531 14.375 4.765625 14.378906 C 4.765625 14.382812 4.765625 14.386719 4.765625 14.386719 C 4.761719 14.394531 4.761719 14.402344 4.757812 14.410156 C 4.757812 14.414062 4.757812 14.417969 4.753906 14.421875 C 4.753906 14.425781 4.753906 14.429688 4.753906 14.433594 C 4.753906 14.441406 4.75 14.449219 4.75 14.457031 C 4.75 14.460938 4.75 14.464844 4.75 14.46875 C 4.746094 14.472656 4.746094 14.476562 4.746094 14.480469 C 4.746094 14.488281 4.746094 14.492188 4.746094 14.5 C 4.746094 14.507812 4.746094 14.515625 4.746094 14.523438 L 4.746094 32.933594 C 4.746094 33.199219 4.960938 33.414062 5.226562 33.414062 L 27.90625 33.414062 C 27.917969 33.414062 27.933594 33.414062 27.949219 33.410156 C 27.953125 33.410156 27.960938 33.410156 27.964844 33.410156 C 27.972656 33.40625 27.984375 33.40625 27.992188 33.40625 C 27.996094 33.402344 28.003906 33.402344 28.011719 33.402344 C 28.019531 33.398438 28.027344 33.398438 28.035156 33.394531 C 28.039062 33.394531 28.042969 33.390625 28.050781 33.390625 C 28.058594 33.386719 28.066406 33.386719 28.078125 33.382812 C 28.082031 33.378906 28.082031 33.378906 28.085938 33.375 C 28.097656 33.371094 28.105469 33.367188 28.117188 33.363281 C 28.117188 33.363281 28.121094 33.363281 28.121094 33.359375 C 28.132812 33.355469 28.144531 33.347656 28.15625 33.34375 C 28.15625 33.34375 28.15625 33.339844 28.160156 33.339844 C 28.183594 33.324219 28.207031 33.308594 28.226562 33.289062 L 32.320312 29.613281 C 32.335938 29.597656 32.351562 29.582031 32.367188 29.566406 C 32.371094 29.5625 32.371094 29.558594 32.375 29.550781 C 32.386719 29.539062 32.398438 29.523438 32.410156 29.507812 " fill-opacity="1" fill-rule="nonzero"/></g><path fill="rgb(83.529663%, 38.42926%, 27.449036%)" d="M 14.203125 23.523438 L 18.140625 23.523438 C 18.40625 23.523438 18.625 23.308594 18.625 23.042969 C 18.625 22.777344 18.40625 22.5625 18.140625 22.5625 L 14.683594 22.5625 L 14.683594 20.90625 L 16.171875 20.90625 C 16.4375 20.90625 16.652344 20.691406 16.652344 20.425781 C 16.652344 20.160156 16.4375 19.945312 16.171875 19.945312 L 14.683594 19.945312 L 14.683594 18.285156 L 18.140625 18.285156 C 18.40625 18.285156 18.625 18.070312 18.625 17.804688 C 18.625 17.539062 18.40625 17.324219 18.140625 17.324219 L 14.203125 17.324219 C 13.9375 17.324219 13.722656 17.539062 13.722656 17.804688 L 13.722656 23.042969 C 13.722656 23.308594 13.9375 23.523438 14.203125 23.523438 " fill-opacity="1" fill-rule="nonzero"/><path fill="rgb(83.529663%, 38.42926%, 27.449036%)" d="M 25.609375 22.5625 C 25.34375 22.5625 25.128906 22.777344 25.128906 23.042969 C 25.128906 23.308594 25.34375 23.523438 25.609375 23.523438 L 28.726562 23.523438 C 28.992188 23.523438 29.207031 23.308594 29.207031 23.042969 L 29.207031 20.425781 C 29.207031 20.160156 28.992188 19.945312 28.726562 19.945312 L 26.089844 19.945312 L 26.089844 18.285156 L 28.726562 18.285156 C 28.992188 18.285156 29.207031 18.070312 29.207031 17.804688 C 29.207031 17.539062 28.992188 17.324219 28.726562 17.324219 L 25.609375 17.324219 C 25.34375 17.324219 25.128906 17.539062 25.128906 17.804688 L 25.128906 20.425781 C 25.128906 20.691406 25.34375 20.90625 25.609375 20.90625 L 28.242188 20.90625 L 28.242188 22.5625 L 25.609375 22.5625 " fill-opacity="1" fill-rule="nonzero"/><path fill="rgb(83.529663%, 38.42926%, 27.449036%)" d="M 12.4375 23.523438 C 12.488281 23.523438 12.542969 23.515625 12.589844 23.5 C 12.789062 23.433594 12.921875 23.25 12.921875 23.042969 L 12.921875 17.804688 C 12.921875 17.539062 12.703125 17.324219 12.4375 17.324219 C 12.171875 17.324219 11.957031 17.539062 11.957031 17.804688 L 11.957031 21.601562 L 8.886719 17.519531 C 8.761719 17.351562 8.542969 17.285156 8.347656 17.351562 C 8.152344 17.414062 8.019531 17.597656 8.019531 17.804688 L 8.019531 23.042969 C 8.019531 23.308594 8.234375 23.523438 8.5 23.523438 C 8.765625 23.523438 8.980469 23.308594 8.980469 23.042969 L 8.980469 19.246094 L 12.054688 23.332031 C 12.144531 23.453125 12.289062 23.523438 12.4375 23.523438 " fill-opacity="1" fill-rule="nonzero"/><path fill="rgb(83.529663%, 38.42926%, 27.449036%)" d="M 20.488281 23.136719 C 20.535156 23.363281 20.730469 23.523438 20.960938 23.523438 C 20.960938 23.523438 20.964844 23.523438 20.96875 23.523438 C 21.199219 23.519531 21.394531 23.351562 21.433594 23.125 L 21.875 20.605469 L 22.316406 23.125 C 22.355469 23.351562 22.550781 23.519531 22.789062 23.523438 C 23.019531 23.523438 23.214844 23.363281 23.261719 23.136719 L 24.316406 17.902344 C 24.367188 17.640625 24.199219 17.386719 23.9375 17.335938 C 23.675781 17.28125 23.425781 17.453125 23.371094 17.710938 L 22.824219 20.4375 L 22.347656 17.722656 C 22.347656 17.71875 22.347656 17.71875 22.347656 17.714844 C 22.34375 17.703125 22.34375 17.695312 22.339844 17.683594 C 22.339844 17.679688 22.335938 17.671875 22.335938 17.664062 C 22.332031 17.65625 22.328125 17.648438 22.328125 17.640625 C 22.324219 17.632812 22.320312 17.625 22.320312 17.621094 C 22.316406 17.613281 22.3125 17.605469 22.308594 17.597656 C 22.304688 17.589844 22.300781 17.585938 22.296875 17.578125 C 22.292969 17.570312 22.289062 17.5625 22.285156 17.558594 C 22.28125 17.550781 22.277344 17.542969 22.273438 17.539062 C 22.269531 17.53125 22.265625 17.523438 22.261719 17.519531 C 22.253906 17.511719 22.25 17.507812 22.246094 17.5 C 22.242188 17.496094 22.234375 17.488281 22.230469 17.484375 C 22.226562 17.476562 22.21875 17.472656 22.214844 17.46875 C 22.210938 17.460938 22.203125 17.457031 22.195312 17.449219 C 22.191406 17.445312 22.1875 17.441406 22.183594 17.4375 C 22.175781 17.429688 22.167969 17.425781 22.160156 17.421875 C 22.15625 17.417969 22.148438 17.410156 22.144531 17.40625 C 22.136719 17.402344 22.132812 17.398438 22.125 17.394531 C 22.117188 17.390625 22.109375 17.386719 22.101562 17.382812 C 22.097656 17.378906 22.089844 17.378906 22.085938 17.375 C 22.078125 17.371094 22.066406 17.367188 22.054688 17.359375 C 22.054688 17.359375 22.050781 17.359375 22.046875 17.355469 C 22.035156 17.351562 22.019531 17.347656 22.007812 17.34375 C 22.007812 17.34375 22.003906 17.34375 22.003906 17.34375 C 21.976562 17.335938 21.945312 17.328125 21.914062 17.328125 C 21.910156 17.328125 21.90625 17.328125 21.902344 17.328125 C 21.894531 17.324219 21.882812 17.324219 21.875 17.324219 C 21.863281 17.324219 21.855469 17.324219 21.847656 17.328125 C 21.84375 17.328125 21.839844 17.328125 21.835938 17.328125 C 21.789062 17.332031 21.742188 17.34375 21.699219 17.359375 C 21.683594 17.363281 21.671875 17.371094 21.65625 17.378906 C 21.65625 17.378906 21.65625 17.378906 21.652344 17.378906 C 21.640625 17.386719 21.628906 17.394531 21.617188 17.398438 C 21.617188 17.402344 21.613281 17.402344 21.609375 17.40625 C 21.601562 17.410156 21.589844 17.417969 21.582031 17.425781 C 21.578125 17.429688 21.574219 17.429688 21.574219 17.433594 C 21.5625 17.441406 21.554688 17.449219 21.546875 17.457031 C 21.542969 17.457031 21.542969 17.460938 21.539062 17.460938 C 21.53125 17.472656 21.523438 17.480469 21.515625 17.488281 C 21.511719 17.492188 21.507812 17.492188 21.507812 17.496094 C 21.5 17.503906 21.492188 17.515625 21.484375 17.523438 C 21.484375 17.527344 21.480469 17.53125 21.480469 17.535156 C 21.472656 17.542969 21.464844 17.550781 21.460938 17.5625 C 21.457031 17.566406 21.457031 17.570312 21.453125 17.574219 C 21.449219 17.582031 21.445312 17.59375 21.441406 17.601562 C 21.4375 17.605469 21.433594 17.613281 21.433594 17.617188 C 21.429688 17.625 21.425781 17.632812 21.421875 17.644531 C 21.421875 17.648438 21.417969 17.65625 21.414062 17.664062 C 21.414062 17.671875 21.410156 17.679688 21.410156 17.6875 C 21.40625 17.695312 21.40625 17.703125 21.402344 17.714844 C 21.402344 17.714844 21.402344 17.71875 21.402344 17.722656 L 20.925781 20.4375 L 20.378906 17.710938 C 20.324219 17.453125 20.074219 17.28125 19.8125 17.335938 C 19.550781 17.386719 19.382812 17.640625 19.433594 17.902344 L 20.488281 23.136719 " fill-opacity="1" fill-rule="nonzero"/><path fill="rgb(83.529663%, 38.42926%, 27.449036%)" d="M 25.199219 26.734375 C 25.464844 26.734375 25.679688 26.519531 25.679688 26.253906 C 25.679688 25.992188 25.464844 25.777344 25.199219 25.777344 L 12.027344 25.777344 C 11.761719 25.777344 11.546875 25.992188 11.546875 26.253906 C 11.546875 26.519531 11.761719 26.734375 12.027344 26.734375 L 25.199219 26.734375 " fill-opacity="1" fill-rule="nonzero"/><path fill="rgb(83.529663%, 38.42926%, 27.449036%)" d="M 10.835938 28.363281 C 10.835938 28.628906 11.050781 28.84375 11.316406 28.84375 L 25.90625 28.84375 C 26.175781 28.84375 26.390625 28.628906 26.390625 28.363281 C 26.390625 28.097656 26.175781 27.882812 25.90625 27.882812 L 11.316406 27.882812 C 11.050781 27.882812 10.835938 28.097656 10.835938 28.363281 " fill-opacity="1" fill-rule="nonzero"/><path fill="rgb(83.529663%, 38.42926%, 27.449036%)" d="M 25.90625 29.992188 L 11.316406 29.992188 C 11.050781 29.992188 10.835938 30.207031 10.835938 30.472656 C 10.835938 30.738281 11.050781 30.953125 11.316406 30.953125 L 25.90625 30.953125 C 26.175781 30.953125 26.390625 30.738281 26.390625 30.472656 C 26.390625 30.207031 26.175781 29.992188 25.90625 29.992188 " fill-opacity="1" fill-rule="nonzero"/></svg>