<?xml version="1.0" encoding="UTF-8"?><svg xmlns="http://www.w3.org/2000/svg" xmlns:xlink="http://www.w3.org/1999/xlink" contentScriptType="text/ecmascript" width="37.5" zoomAndPan="magnify" contentStyleType="text/css" viewBox="0 0 37.5 37.499999" height="37.499999" preserveAspectRatio="xMidYMid meet" version="1.0"><defs><clipPath id="clip-0"><path d="M 0 0 L 37.007812 0 L 37.007812 37.007812 L 0 37.007812 Z M 0 0 " clip-rule="nonzero"/></clipPath><clipPath id="clip-1"><path d="M 6.523438 9.050781 L 14 9.050781 L 14 18 L 6.523438 18 Z M 6.523438 9.050781 " clip-rule="nonzero"/></clipPath><clipPath id="clip-2"><path d="M 15.671875 21.433594 L 20.292969 21.433594 L 20.292969 24.050781 L 15.671875 24.050781 Z M 15.671875 21.433594 " clip-rule="nonzero"/></clipPath><clipPath id="clip-3"><path d="M 10 9.050781 L 13 9.050781 L 13 13 L 10 13 Z M 10 9.050781 " clip-rule="nonzero"/></clipPath><clipPath id="clip-4"><path d="M 12.070312 22.835938 L 15.859375 22.835938 L 15.859375 24.050781 L 12.070312 24.050781 Z M 12.070312 22.835938 " clip-rule="nonzero"/></clipPath><clipPath id="clip-5"><path d="M 10.222656 13.136719 L 21.523438 13.136719 L 21.523438 24.050781 L 10.222656 24.050781 Z M 10.222656 13.136719 " clip-rule="nonzero"/></clipPath><clipPath id="clip-6"><path d="M 5.449219 6.847656 L 31.695312 6.847656 L 31.695312 33.71875 L 5.449219 33.71875 Z M 5.449219 6.847656 " clip-rule="nonzero"/></clipPath></defs><g clip-path="url(#clip-0)"><path fill="rgb(100%, 100%, 100%)" d="M 0 0 L 37.5 0 L 37.5 262.5 L 0 262.5 Z M 0 0 " fill-opacity="1" fill-rule="nonzero"/><path fill="rgb(100%, 100%, 100%)" d="M 0 0 L 37.5 0 L 37.5 37.5 L 0 37.5 Z M 0 0 " fill-opacity="1" fill-rule="nonzero"/><path fill="rgb(100%, 100%, 100%)" d="M 0 0 L 37.5 0 L 37.5 37.5 L 0 37.5 Z M 0 0 " fill-opacity="1" fill-rule="nonzero"/></g><path stroke-linecap="round" transform="matrix(0.000531145, 0, 0, -0.000537018, 6.526828, 24.051506)" fill="none" stroke-linejoin="round" d="M 7421.558214 8730.101547 L 6590.511283 2830.920591 C 6590.511283 2598.153895 6406.651342 2416.304914 6178.665016 2416.304914 C 5487.351639 2416.304914 4921.063022 1856.210051 4921.063022 1157.909963 C 4921.063022 663.280733 5325.554892 263.212974 5818.299532 263.212974 L 7009.711947 263.212974 C 7995.201228 263.212974 8532.072255 1128.814126 8789.476171 2045.332992 L 9333.701596 4853.081264 " stroke="rgb(100%, 100%, 100%)" stroke-width="332.88699" stroke-opacity="1" stroke-miterlimit="10"/><g clip-path="url(#clip-1)"><path stroke-linecap="round" transform="matrix(0.000904327, 0, 0, -0.000914328, 6.526828, 24.051506)" fill="none" stroke-linejoin="round" d="M 8017.579373 11506.002715 C 7300.540847 12044.308101 6868.589927 12800.499 6855.6314 13774.575412 C 6846.992381 14855.458448 6112.675819 15816.718065 5063.035085 16051.692638 C 3957.240732 16299.484006 2946.475581 15769.723151 2471.32957 14902.453363 C 2397.897914 14770.013149 2263.993129 14684.56785 2112.810307 14680.295585 L 246.782336 14620.483875 C 164.711661 14620.483875 95.599514 14552.127636 95.599514 14466.682336 C 95.599514 13347.348915 1002.696445 12441.628743 2121.449325 12441.628743 L 2359.022331 12441.628743 C 2574.99779 12441.628743 2752.097667 12266.465879 2752.097667 12048.580366 L 2752.097667 9980.804123 C 2752.097667 8912.737881 3171.090059 7883.122025 3918.365149 7122.658861 C 4026.352879 7011.579972 4117.062572 6896.228818 4190.494228 6768.060869 " stroke="rgb(100%, 100%, 100%)" stroke-width="195.51199" stroke-opacity="1" stroke-miterlimit="10"/></g><g clip-path="url(#clip-2)"><path stroke-linecap="round" transform="matrix(0.000838943, 0, 0, -0.000848221, 6.526828, 24.051506)" fill="none" stroke-linejoin="round" d="M 11012.422421 106.775254 L 14299.668175 106.775254 C 15403.177019 106.775254 16301.815022 1000.189733 16301.815022 2105.444759 L 16301.815022 2975.833092 " stroke="rgb(100%, 100%, 100%)" stroke-width="210.756" stroke-opacity="1" stroke-miterlimit="10"/></g><g clip-path="url(#clip-3)"><path stroke-linecap="round" transform="matrix(0.000891208, 0, 0, -0.000901063, 6.526828, 24.051506)" fill="none" stroke-linejoin="round" d="M 6185.127932 15733.087108 L 6185.127932 13439.789418 C 6185.127932 12858.878471 5716.136602 12390.681589 5141.950954 12390.681589 C 4563.38221 12390.681589 4094.39088 12858.878471 4094.39088 13439.789418 L 4094.39088 16300.992586 " stroke="rgb(100%, 100%, 100%)" stroke-width="198.396" stroke-opacity="1" stroke-miterlimit="10"/></g><g clip-path="url(#clip-4)"><path stroke-linecap="round" transform="matrix(0.000566838, 0, 0, -0.000573106, 6.526828, 24.051506)" fill="none" stroke-linejoin="round" d="M 16298.840696 158.031791 L 10647.972502 158.031791 C 10262.059553 158.031791 9945.05963 471.56456 9945.05963 860.072558 C 9945.05963 1466.690307 10406.776909 1964.253181 10971.863728 1964.253181 L 11991.776524 1964.253181 " stroke="rgb(100%, 100%, 100%)" stroke-width="311.918" stroke-opacity="1" stroke-miterlimit="10"/></g><g clip-path="url(#clip-5)"><path stroke-linecap="round" transform="matrix(0.000914631, 0, 0, -0.000924746, 6.526828, 24.051506)" fill="none" stroke-linejoin="round" d="M 11950.390154 11507.324532 L 13850.91649 11076.462891 C 14107.167232 11017.325019 14290.813597 10789.221797 14290.813597 10523.101371 L 14290.813597 10518.877237 C 14290.813597 9559.998879 14961.336372 8757.413468 15862.484815 8554.655049 C 16118.735557 8499.74131 16298.111076 8280.086356 16298.111076 8022.414198 L 16298.111076 6451.036447 C 16298.111076 4170.004228 14965.607218 2100.178696 12889.976208 1158.196873 L 10848.511964 233.111584 C 10451.323314 51.473833 9994.342824 51.473833 9597.154174 233.111584 L 7555.689929 1158.196873 C 5480.058919 2100.178696 4143.284215 4170.004228 4143.284215 6451.036447 L 4143.284215 8022.414198 C 4143.284215 8280.086356 4326.93058 8499.74131 4578.910477 8554.655049 C 5480.058919 8757.413468 6154.85254 9559.998879 6154.85254 10518.877237 L 6154.85254 10523.101371 C 6154.85254 10789.221797 6338.498905 11017.325019 6594.749647 11076.462891 L 8491.005137 11507.324532 C 9631.320939 11764.99669 10814.345198 11764.99669 11950.390154 11507.324532 Z M 11950.390154 11507.324532 " stroke="rgb(100%, 100%, 100%)" stroke-width="193.32201" stroke-opacity="1" stroke-miterlimit="10"/></g><path stroke-linecap="round" transform="matrix(0.000557171, 0, 0, -0.000563332, 6.526828, 24.051506)" fill="none" stroke-linejoin="round" d="M 13665.10235 12690.84369 C 13868.417447 11740.860511 14569.503989 11089.047235 15242.547069 11227.730911 C 15915.590148 11366.414587 16301.187746 12253.990112 16097.872649 13203.97329 C 15901.568418 14153.956469 15193.471011 14805.769745 14520.427931 14667.086069 C 13854.395716 14528.402394 13468.798119 13640.826869 13665.10235 12690.84369 Z M 13665.10235 12690.84369 " stroke="rgb(100%, 100%, 100%)" stroke-width="317.311" stroke-opacity="1" stroke-miterlimit="10"/><path stroke-linecap="round" transform="matrix(0.000684115, 0, 0, -0.00069168, 6.526828, 24.051506)" fill="none" stroke-linejoin="round" d="M 16137.032655 10335.942679 C 15977.154451 9562.237485 15400.450928 9031.374067 14852.297085 9144.32373 C 14304.143241 9262.920877 13995.806705 9980.151239 14155.684909 10753.856434 C 14315.563113 11527.561628 14892.266636 12058.425046 15440.420479 11945.475382 C 15988.574322 11832.525719 16302.620795 11109.647873 16137.032655 10335.942679 Z M 16137.032655 10335.942679 " stroke="rgb(100%, 100%, 100%)" stroke-width="258.44601" stroke-opacity="1" stroke-miterlimit="10"/><path stroke-linecap="round" transform="matrix(0.000531145, 0, 0, -0.000537018, 6.526828, 24.051506)" fill="none" stroke-linejoin="round" d="M 11429.704918 10468.577809 C 12106.309499 9704.812087 13091.79878 9479.31935 13628.669807 9959.400661 C 14165.540833 10439.481972 14055.224869 11443.288349 13378.620288 12199.780111 C 12702.015706 12963.545833 11716.526425 13189.03857 11179.655399 12708.957259 C 10642.784372 12228.875948 10753.100337 11225.069571 11429.704918 10468.577809 Z M 11429.704918 10468.577809 " stroke="rgb(100%, 100%, 100%)" stroke-width="332.88699" stroke-opacity="1" stroke-miterlimit="10"/><path stroke-linecap="round" transform="matrix(0.00080017, 0, 0, -0.000809018, 6.526828, 24.051506)" fill="none" stroke-linejoin="round" d="M 15773.668778 6948.939948 C 15324.545216 6441.959704 14675.268762 6292.279822 14314.017201 6610.953119 C 13957.647418 6929.626415 14035.755864 7595.943308 14484.879426 8098.095169 C 14934.002988 8605.075413 15583.279442 8754.755294 15944.531003 8436.081998 C 16300.900786 8117.408702 16227.674118 7451.091809 15773.668778 6948.939948 Z M 15773.668778 6948.939948 " stroke="rgb(100%, 100%, 100%)" stroke-width="220.97301" stroke-opacity="1" stroke-miterlimit="10"/><path stroke-linecap="round" transform="matrix(0.000684752, 0, 0, -0.000692324, 6.526828, 24.051506)" fill="none" stroke-linejoin="round" d="M 10970.739509 5005.702856 C 10970.739509 3188.90576 12163.005313 4289.140026 13634.797549 4289.140026 C 15106.589785 4289.140026 16298.855589 3188.90576 16298.855589 5005.702856 C 16298.855589 6816.857724 15106.589785 8289.478972 13634.797549 8289.478972 C 12163.005313 8289.478972 10970.739509 6816.857724 10970.739509 5005.702856 Z M 10970.739509 5005.702856 " stroke="rgb(100%, 100%, 100%)" stroke-width="258.22299" stroke-opacity="1" stroke-miterlimit="10"/><path fill="rgb(83.529663%, 38.42926%, 27.449036%)" d="M 20.621094 12.363281 L 19.800781 12.363281 L 19.800781 13.195312 C 20.621094 13.195312 19.800781 13.195312 20.621094 13.195312 L 20.621094 12.363281 " fill-opacity="1" fill-rule="nonzero"/><g clip-path="url(#clip-6)"><path fill="rgb(83.529663%, 38.42926%, 27.449036%)" d="M 25.867188 26.183594 C 25.402344 26.855469 25.363281 27.738281 25.765625 28.449219 L 21.578125 29.460938 L 20.789062 27.511719 C 22.609375 26.992188 23.902344 25.714844 23.902344 24.222656 L 23.640625 20.664062 L 25.035156 19.492188 L 26.175781 18.535156 L 26.578125 18.199219 L 26.851562 17.96875 L 27.421875 17.488281 C 27.578125 17.359375 27.785156 17.304688 27.980469 17.34375 C 28.183594 17.386719 28.355469 17.515625 28.453125 17.703125 C 28.597656 17.976562 28.546875 18.320312 28.332031 18.542969 L 27.804688 19.230469 L 25.261719 22.527344 L 25.132812 22.695312 L 24.933594 24.5625 L 25.746094 24.65625 L 25.925781 23.019531 L 28.433594 19.757812 L 28.933594 19.109375 C 29.082031 18.953125 29.1875 18.769531 29.257812 18.578125 C 29.40625 18.175781 29.390625 17.714844 29.179688 17.3125 C 29.125 17.210938 29.0625 17.117188 28.988281 17.03125 C 28.855469 16.871094 28.691406 16.746094 28.507812 16.65625 C 28.480469 16.640625 28.453125 16.628906 28.425781 16.617188 C 28.445312 16.585938 28.464844 16.554688 28.484375 16.523438 C 28.558594 16.386719 28.59375 16.230469 28.589844 16.074219 L 28.484375 14.132812 L 28.304688 10.691406 L 28.164062 8.070312 C 28.167969 7.914062 28.429688 7.804688 28.683594 7.789062 C 28.957031 7.769531 29.269531 7.855469 29.296875 8.027344 L 30.855469 18.359375 C 30.910156 18.695312 30.835938 19.042969 30.640625 19.320312 L 30.011719 20.507812 L 29.644531 21.191406 L 29.027344 22.351562 Z M 20.558594 26.71875 C 20.429688 26.753906 20.296875 26.785156 20.160156 26.8125 C 20.027344 26.835938 19.894531 26.859375 19.757812 26.875 C 19.503906 26.910156 19.246094 26.925781 18.980469 26.925781 C 18.421875 26.925781 17.894531 26.851562 17.410156 26.71875 C 17.273438 26.683594 17.140625 26.640625 17.011719 26.59375 C 16.875 26.546875 16.746094 26.492188 16.621094 26.433594 C 15.570312 25.945312 14.878906 25.144531 14.878906 24.253906 L 15.042969 21.964844 L 15.121094 20.949219 L 15.230469 19.421875 L 16.785156 20.683594 L 21.175781 20.683594 L 22.730469 19.421875 L 22.792969 20.296875 L 22.832031 20.804688 L 22.867188 21.316406 L 23.082031 24.238281 C 23.070312 25.351562 22.03125 26.308594 20.558594 26.71875 Z M 16.398438 27.398438 L 15.71875 29.5 L 11.375 28.449219 C 11.773438 27.738281 11.738281 26.855469 11.25 26.15625 L 8.113281 22.351562 L 7.496094 21.191406 L 7.132812 20.507812 L 6.523438 19.363281 L 6.496094 19.320312 C 6.304688 19.042969 6.230469 18.695312 6.289062 18.347656 L 7.84375 8.03125 C 7.871094 7.855469 8.183594 7.769531 8.457031 7.789062 C 8.710938 7.804688 8.972656 7.914062 8.976562 8.039062 L 8.835938 10.691406 L 8.65625 14.132812 L 8.550781 16.074219 C 8.542969 16.230469 8.582031 16.386719 8.65625 16.519531 C 8.671875 16.554688 8.691406 16.585938 8.714844 16.617188 C 8.6875 16.628906 8.660156 16.640625 8.632812 16.65625 C 8.449219 16.746094 8.285156 16.871094 8.152344 17.03125 C 8.078125 17.117188 8.015625 17.210938 7.960938 17.3125 C 7.75 17.714844 7.734375 18.175781 7.882812 18.578125 C 7.953125 18.773438 8.058594 18.953125 8.207031 19.105469 C 8.210938 19.113281 8.21875 19.121094 8.222656 19.125 L 8.777344 19.699219 L 12.039062 23.046875 L 12.214844 24.65625 L 13.027344 24.5625 L 12.824219 22.667969 L 12.414062 22.246094 L 9.414062 19.164062 L 8.808594 18.542969 C 8.59375 18.320312 8.542969 17.976562 8.6875 17.703125 C 8.785156 17.515625 8.953125 17.386719 9.15625 17.34375 C 9.359375 17.304688 9.5625 17.359375 9.71875 17.488281 L 10.289062 17.96875 L 10.460938 18.113281 L 10.5625 18.199219 L 10.964844 18.535156 L 12.1875 19.566406 L 12.195312 19.570312 L 14.269531 21.3125 L 14.058594 24.222656 C 14.058594 25.507812 15.015625 26.632812 16.445312 27.253906 C 16.429688 27.300781 16.417969 27.351562 16.398438 27.398438 Z M 9.652344 10.78125 L 9.875 9.503906 C 9.917969 9.46875 10.160156 9.449219 10.480469 9.605469 C 10.769531 9.746094 10.988281 9.96875 11.003906 10.136719 L 10.382812 16.964844 L 9.371094 16.117188 Z M 11.628906 12.300781 C 11.78125 13.1875 12.484375 13.882812 13.367188 14.003906 C 13.378906 14.007812 13.390625 14.007812 13.402344 14.011719 C 13.40625 14.011719 13.410156 14.011719 13.414062 14.011719 C 13.441406 14.015625 13.476562 14.015625 13.507812 14.019531 C 13.542969 14.023438 13.578125 14.023438 13.617188 14.023438 C 13.628906 14.023438 13.636719 14.027344 13.648438 14.027344 C 13.664062 14.027344 13.679688 14.023438 13.695312 14.023438 C 13.734375 14.023438 13.773438 14.023438 13.808594 14.019531 C 13.839844 14.015625 13.871094 14.015625 13.902344 14.007812 C 13.925781 14.007812 13.949219 14.003906 13.972656 13.996094 C 14.019531 13.992188 14.0625 13.984375 14.109375 13.972656 C 14.316406 14.410156 14.667969 14.839844 14.964844 15.203125 C 15.105469 15.375 15.296875 15.605469 15.367188 15.726562 C 15.265625 16.109375 15.265625 16.515625 15.367188 16.914062 C 15.5625 17.691406 16.183594 18.324219 16.949219 18.527344 C 17.144531 18.578125 17.347656 18.605469 17.542969 18.605469 C 17.757812 18.605469 17.96875 18.574219 18.167969 18.515625 C 18.429688 18.441406 18.710938 18.441406 18.972656 18.515625 C 19.363281 18.628906 19.785156 18.632812 20.191406 18.527344 C 20.957031 18.324219 21.578125 17.691406 21.773438 16.914062 C 21.875 16.519531 21.875 16.113281 21.777344 15.726562 C 21.84375 15.609375 22.035156 15.378906 22.179688 15.203125 C 22.476562 14.839844 22.828125 14.410156 23.035156 13.972656 C 23.078125 13.984375 23.121094 13.992188 23.164062 13.996094 C 23.191406 14.003906 23.214844 14.007812 23.242188 14.011719 C 23.269531 14.015625 23.300781 14.015625 23.328125 14.019531 C 23.367188 14.023438 23.410156 14.023438 23.453125 14.023438 C 23.464844 14.023438 23.476562 14.027344 23.492188 14.027344 C 23.5 14.027344 23.511719 14.023438 23.519531 14.023438 C 23.5625 14.023438 23.601562 14.023438 23.640625 14.019531 C 23.671875 14.015625 23.699219 14.015625 23.730469 14.011719 C 23.734375 14.011719 23.738281 14.011719 23.742188 14.011719 C 23.753906 14.007812 23.765625 14.007812 23.777344 14.003906 C 24.660156 13.878906 25.359375 13.183594 25.507812 12.300781 L 25.992188 17.609375 L 24.421875 18.929688 L 23.566406 19.648438 L 23.433594 17.785156 L 20.886719 19.851562 L 17.074219 19.851562 L 14.527344 17.785156 L 14.34375 20.296875 L 12.71875 18.929688 L 11.285156 17.726562 L 11.148438 17.609375 Z M 12.417969 11.53125 L 12.417969 10.472656 L 15.324219 7.890625 L 16.929688 8.980469 L 17.132812 8.898438 C 17.449219 8.765625 17.78125 8.679688 18.113281 8.644531 C 18.765625 8.570312 19.398438 8.65625 20.007812 8.902344 L 20.207031 8.980469 L 21.816406 7.890625 L 24.722656 10.472656 L 24.722656 11.84375 C 24.722656 12.453125 24.332031 12.992188 23.804688 13.148438 C 23.753906 13.164062 23.699219 13.175781 23.644531 13.183594 C 23.644531 13.183594 23.640625 13.183594 23.636719 13.183594 C 23.582031 13.191406 23.527344 13.195312 23.472656 13.195312 C 23.46875 13.195312 23.460938 13.191406 23.457031 13.191406 C 23.410156 13.191406 23.367188 13.1875 23.324219 13.179688 C 23.289062 13.175781 23.253906 13.167969 23.214844 13.160156 C 23.214844 13.160156 23.210938 13.15625 23.207031 13.15625 C 23.125 13.136719 23.042969 13.109375 22.964844 13.070312 L 22.875 13.027344 C 22.507812 12.808594 22.261719 12.40625 22.261719 11.945312 L 22.261719 9.449219 L 21.441406 9.449219 L 21.441406 11.945312 C 21.441406 12.636719 21.777344 13.25 22.289062 13.628906 C 22.121094 13.96875 21.800781 14.363281 21.546875 14.671875 C 21.113281 15.199219 20.851562 15.519531 20.964844 15.878906 C 21.046875 16.144531 21.054688 16.421875 20.980469 16.707031 C 20.855469 17.195312 20.464844 17.59375 19.984375 17.71875 C 19.714844 17.792969 19.453125 17.789062 19.199219 17.714844 C 19.125 17.695312 19.054688 17.683594 18.980469 17.667969 L 18.980469 16.109375 L 19.390625 16.109375 L 19.390625 15.273438 L 17.75 15.273438 L 17.75 16.109375 L 18.160156 16.109375 L 18.160156 17.667969 C 18.085938 17.683594 18.015625 17.695312 17.941406 17.714844 C 17.6875 17.789062 17.425781 17.792969 17.15625 17.71875 C 16.675781 17.59375 16.285156 17.195312 16.160156 16.707031 C 16.085938 16.421875 16.09375 16.140625 16.175781 15.875 C 16.289062 15.515625 16.027344 15.199219 15.59375 14.671875 C 15.34375 14.363281 15.019531 13.964844 14.855469 13.625 C 15.367188 13.246094 15.699219 12.636719 15.699219 11.945312 L 15.699219 9.449219 L 14.878906 9.449219 L 14.878906 11.945312 C 14.878906 12.40625 14.632812 12.808594 14.265625 13.023438 L 14.175781 13.066406 C 14.097656 13.105469 14.019531 13.136719 13.941406 13.15625 C 13.9375 13.15625 13.933594 13.15625 13.929688 13.15625 C 13.894531 13.167969 13.859375 13.175781 13.824219 13.179688 C 13.78125 13.183594 13.734375 13.191406 13.691406 13.191406 C 13.683594 13.191406 13.675781 13.195312 13.664062 13.195312 C 13.613281 13.195312 13.558594 13.191406 13.503906 13.183594 C 13.449219 13.179688 13.394531 13.164062 13.34375 13.152344 C 12.8125 12.996094 12.417969 12.457031 12.417969 11.84375 Z M 26.660156 9.605469 C 26.980469 9.449219 27.222656 9.46875 27.269531 9.527344 L 27.488281 10.789062 L 27.769531 16.117188 L 26.898438 16.847656 L 26.757812 16.964844 L 26.136719 10.136719 C 26.152344 9.96875 26.367188 9.746094 26.660156 9.605469 Z M 29.683594 22.855469 L 31.328125 19.78125 C 31.632812 19.328125 31.753906 18.757812 31.664062 18.222656 L 30.105469 7.902344 C 30.015625 7.292969 29.40625 6.90625 28.628906 6.957031 C 27.882812 7.007812 27.355469 7.460938 27.34375 8.085938 L 27.375 8.675781 C 27.269531 8.652344 27.160156 8.640625 27.035156 8.652344 C 26.390625 8.695312 25.507812 9.1875 25.34375 9.917969 L 21.882812 6.847656 L 20.105469 8.050781 C 19.433594 7.8125 18.734375 7.734375 18.023438 7.816406 C 17.6875 7.855469 17.355469 7.933594 17.03125 8.046875 L 15.253906 6.847656 L 11.796875 9.917969 C 11.628906 9.1875 10.75 8.695312 10.105469 8.652344 C 9.980469 8.640625 9.871094 8.652344 9.761719 8.675781 L 9.796875 8.054688 C 9.785156 7.460938 9.257812 7.007812 8.511719 6.957031 C 7.734375 6.90625 7.125 7.292969 7.03125 7.902344 L 5.480469 18.214844 C 5.386719 18.757812 5.507812 19.328125 5.8125 19.78125 L 7.410156 22.785156 L 10.601562 26.664062 C 10.886719 27.078125 10.910156 27.625 10.65625 28.058594 L 10.542969 28.25 L 10.054688 28.132812 C 9.863281 28.085938 9.664062 28.183594 9.582031 28.367188 L 7.367188 33.378906 L 8.113281 33.71875 L 8.359375 33.167969 L 10.195312 29.019531 L 10.257812 29.035156 L 10.941406 29.199219 L 11.242188 29.273438 L 15.460938 30.292969 L 15.863281 30.390625 L 15.996094 30.421875 C 16.09375 30.445312 16.175781 30.503906 16.230469 30.585938 C 16.242188 30.597656 16.25 30.605469 16.257812 30.617188 C 16.316406 30.722656 16.332031 30.839844 16.300781 30.957031 L 15.683594 33.167969 L 15.605469 33.457031 L 16.394531 33.683594 L 17.089844 31.183594 C 17.179688 30.851562 17.136719 30.492188 16.964844 30.195312 C 16.851562 30 16.691406 29.847656 16.503906 29.742188 L 17.171875 27.671875 C 17.191406 27.625 17.203125 27.574219 17.21875 27.523438 C 17.765625 27.675781 18.359375 27.757812 18.980469 27.757812 C 19.320312 27.757812 19.652344 27.734375 19.972656 27.6875 L 20.777344 29.671875 C 20.527344 29.773438 20.316406 29.957031 20.175781 30.195312 C 20.003906 30.492188 19.960938 30.851562 20.050781 31.183594 L 20.746094 33.683594 L 21.535156 33.457031 L 21.457031 33.167969 L 20.839844 30.957031 C 20.808594 30.839844 20.824219 30.722656 20.882812 30.617188 C 20.929688 30.535156 21.003906 30.476562 21.085938 30.441406 C 21.105469 30.433594 21.125 30.425781 21.144531 30.421875 L 21.488281 30.339844 L 21.890625 30.242188 L 25.96875 29.257812 L 26.199219 29.199219 L 26.882812 29.035156 L 26.945312 29.019531 L 28.78125 33.167969 L 29.027344 33.71875 L 29.773438 33.378906 L 27.554688 28.367188 C 27.476562 28.183594 27.28125 28.085938 27.085938 28.132812 L 26.597656 28.25 L 26.484375 28.058594 C 26.230469 27.625 26.253906 27.078125 26.519531 26.691406 L 29.683594 22.855469 " fill-opacity="1" fill-rule="nonzero"/></g><path fill="rgb(83.529663%, 38.42926%, 27.449036%)" d="M 16.929688 23.175781 L 16.929688 23.183594 C 16.929688 23.183594 16.933594 23.183594 16.933594 23.183594 C 17.746094 23.183594 16.929688 23.183594 17.75 23.183594 L 17.75 22.347656 L 16.929688 22.347656 L 16.929688 23.175781 " fill-opacity="1" fill-rule="nonzero"/><path fill="rgb(83.529663%, 38.42926%, 27.449036%)" d="M 22.261719 31.148438 L 22.261719 31.898438 C 22.410156 31.898438 22.503906 31.898438 22.566406 31.898438 C 22.835938 31.898438 22.410156 31.898438 23.082031 31.898438 L 23.082031 31.066406 L 22.261719 31.066406 L 22.261719 31.148438 " fill-opacity="1" fill-rule="nonzero"/><path fill="rgb(83.529663%, 38.42926%, 27.449036%)" d="M 14.058594 31.636719 L 14.058594 31.898438 C 14.21875 31.898438 14.3125 31.898438 14.371094 31.898438 C 14.625 31.898438 14.21875 31.898438 14.878906 31.898438 L 14.878906 31.066406 L 14.058594 31.066406 L 14.058594 31.636719 " fill-opacity="1" fill-rule="nonzero"/><path fill="rgb(83.529663%, 38.42926%, 27.449036%)" d="M 18.570312 24.015625 L 18.160156 24.015625 L 18.160156 24.84375 L 18.570312 24.84375 L 18.570312 25.679688 L 19.390625 25.679688 L 19.390625 24.84375 L 19.800781 24.84375 L 19.800781 24.015625 L 18.570312 24.015625 " fill-opacity="1" fill-rule="nonzero"/><path fill="rgb(83.529663%, 38.42926%, 27.449036%)" d="M 20.210938 22.347656 L 20.210938 23.183594 C 20.789062 23.183594 20.554688 23.183594 20.652344 23.183594 C 20.691406 23.183594 20.789062 23.183594 21.03125 23.183594 L 21.03125 22.347656 L 20.210938 22.347656 " fill-opacity="1" fill-rule="nonzero"/><path fill="rgb(83.529663%, 38.42926%, 27.449036%)" d="M 17.339844 12.363281 L 16.519531 12.363281 L 16.519531 13.195312 C 17.339844 13.195312 16.519531 13.195312 17.339844 13.195312 L 17.339844 12.363281 " fill-opacity="1" fill-rule="nonzero"/></svg>