<?xml version="1.0" encoding="UTF-8"?><svg xmlns="http://www.w3.org/2000/svg" xmlns:xlink="http://www.w3.org/1999/xlink" contentScriptType="text/ecmascript" width="37.5" zoomAndPan="magnify" contentStyleType="text/css" viewBox="0 0 37.5 37.499999" height="37.499999" preserveAspectRatio="xMidYMid meet" version="1.0"><defs><clipPath id="clip-0"><path d="M 0 0 L 37.007812 0 L 37.007812 37.007812 L 0 37.007812 Z M 0 0 " clip-rule="nonzero"/></clipPath><clipPath id="clip-1"><path d="M 5.316406 8 L 32.316406 8 L 32.316406 33.488281 L 5.316406 33.488281 Z M 5.316406 8 " clip-rule="nonzero"/></clipPath></defs><g clip-path="url(#clip-0)"><path fill="rgb(100%, 100%, 100%)" d="M 0 0 L 37.5 0 L 37.5 37.5 L 0 37.5 Z M 0 0 " fill-opacity="1" fill-rule="nonzero"/><path fill="rgb(100%, 100%, 100%)" d="M 0 0 L 37.5 0 L 37.5 37.5 L 0 37.5 Z M 0 0 " fill-opacity="1" fill-rule="nonzero"/></g><path fill="rgb(83.529663%, 38.42926%, 27.449036%)" d="M 28.363281 14.246094 L 27.53125 14.246094 L 27.53125 15.066406 C 28.363281 15.066406 27.53125 15.066406 28.363281 15.066406 L 28.363281 14.246094 " fill-opacity="1" fill-rule="nonzero"/><path fill="rgb(83.529663%, 38.42926%, 27.449036%)" d="M 25.871094 17.113281 L 25.871094 17.523438 L 26.703125 17.523438 L 26.703125 16.703125 L 27.117188 16.703125 L 27.117188 15.886719 L 25.457031 15.886719 L 25.457031 16.703125 L 25.871094 16.703125 L 25.871094 17.113281 " fill-opacity="1" fill-rule="nonzero"/><path fill="rgb(83.529663%, 38.42926%, 27.449036%)" d="M 25.039062 14.246094 L 24.210938 14.246094 L 24.210938 15.066406 C 25.039062 15.066406 24.210938 15.066406 25.039062 15.066406 L 25.039062 14.246094 " fill-opacity="1" fill-rule="nonzero"/><path fill="rgb(83.529663%, 38.42926%, 27.449036%)" d="M 15.484375 13.429688 L 14.652344 13.429688 L 14.652344 14.246094 C 15.484375 14.246094 14.652344 14.246094 15.484375 14.246094 L 15.484375 13.429688 " fill-opacity="1" fill-rule="nonzero"/><path fill="rgb(83.529663%, 38.42926%, 27.449036%)" d="M 9.253906 27.75 L 10.5 27.75 L 10.5 29.796875 L 9.253906 29.796875 Z M 8.421875 30.613281 L 11.328125 30.613281 L 11.328125 26.933594 L 8.421875 26.933594 L 8.421875 30.613281 " fill-opacity="1" fill-rule="nonzero"/><path fill="rgb(83.529663%, 38.42926%, 27.449036%)" d="M 28.363281 29.796875 L 27.117188 29.796875 L 27.117188 27.75 L 28.363281 27.75 Z M 29.195312 26.933594 L 26.285156 26.933594 L 26.285156 30.613281 L 29.195312 30.613281 L 29.195312 26.933594 " fill-opacity="1" fill-rule="nonzero"/><g clip-path="url(#clip-1)"><path fill="rgb(83.529663%, 38.42926%, 27.449036%)" d="M 25.175781 23.25 L 19.300781 19.003906 C 19.277344 18.988281 19.253906 18.976562 19.226562 18.960938 L 18.808594 18.636719 L 18.386719 18.960938 C 18.363281 18.976562 18.339844 18.988281 18.316406 19.003906 L 12.441406 23.25 L 6.542969 23.25 L 8.703125 17.929688 L 10.167969 17.929688 C 10.378906 18.683594 11 19.292969 11.761719 19.488281 C 12.175781 19.597656 12.601562 19.59375 13 19.480469 C 13.261719 19.40625 13.550781 19.40625 13.816406 19.480469 C 14.019531 19.539062 14.230469 19.566406 14.445312 19.566406 C 14.648438 19.566406 14.851562 19.542969 15.050781 19.488281 C 15.816406 19.292969 16.4375 18.683594 16.644531 17.929688 L 22.058594 17.929688 C 22.941406 18.914062 24.507812 19.566406 26.285156 19.566406 C 27.414062 19.566406 28.457031 19.304688 29.292969 18.863281 L 31.074219 23.25 Z M 30.441406 24.886719 L 26.285156 24.886719 L 26.285156 25.703125 L 30.441406 25.703125 L 30.441406 32.660156 L 25.066406 32.660156 L 25.066406 26 C 25.308594 25.847656 25.457031 25.589844 25.457031 25.304688 L 25.457031 24.070312 L 30.441406 24.070312 Z M 24.625 24.070312 L 24.625 25.304688 L 24.234375 25.023438 L 22.910156 24.070312 L 21.777344 23.25 L 18.808594 21.105469 L 15.839844 23.25 L 14.707031 24.070312 L 13.382812 25.023438 L 12.992188 25.304688 L 12.992188 23.867188 L 13.277344 23.660156 L 13.84375 23.25 L 18.808594 19.664062 L 23.769531 23.25 L 24.335938 23.660156 L 24.625 23.867188 Z M 24.234375 32.660156 L 13.382812 32.660156 L 13.382812 26.027344 C 13.414062 26.011719 13.449219 25.988281 13.484375 25.96875 L 16.113281 24.070312 L 17.246094 23.25 L 18.808594 22.121094 L 20.371094 23.25 L 21.503906 24.070312 L 24.132812 25.96875 C 24.164062 25.988281 24.199219 26.011719 24.234375 26.03125 Z M 12.550781 32.660156 L 7.175781 32.660156 L 7.175781 25.703125 L 11.328125 25.703125 L 11.328125 24.886719 L 7.175781 24.886719 L 7.175781 24.070312 L 12.160156 24.070312 L 12.160156 25.304688 C 12.160156 25.589844 12.308594 25.847656 12.550781 26 Z M 9.644531 14.671875 C 10.160156 14.300781 10.5 13.699219 10.5 13.019531 L 10.5 10.566406 L 9.667969 10.566406 L 9.667969 13.019531 C 9.667969 13.472656 9.417969 13.867188 9.046875 14.078125 C 9.015625 14.101562 8.976562 14.113281 8.9375 14.128906 C 8.894531 14.152344 8.847656 14.171875 8.800781 14.1875 C 8.742188 14.203125 8.683594 14.222656 8.621094 14.230469 C 8.621094 14.230469 8.617188 14.230469 8.617188 14.230469 C 8.566406 14.238281 8.515625 14.242188 8.464844 14.246094 C 8.457031 14.246094 8.449219 14.246094 8.4375 14.246094 C 8.382812 14.246094 8.332031 14.246094 8.277344 14.238281 C 8.273438 14.238281 8.273438 14.238281 8.273438 14.238281 C 8.21875 14.230469 8.164062 14.21875 8.109375 14.203125 C 7.574219 14.054688 7.175781 13.519531 7.175781 12.917969 L 7.175781 11.570312 L 10.117188 9.035156 L 11.746094 10.101562 L 11.949219 10.023438 C 12.273438 9.894531 12.609375 9.8125 12.945312 9.773438 C 13.601562 9.699219 14.246094 9.785156 14.863281 10.027344 L 15.066406 10.105469 L 16.695312 9.035156 L 19.640625 11.570312 L 19.640625 12.917969 C 19.640625 13.519531 19.242188 14.050781 18.710938 14.203125 C 18.65625 14.214844 18.601562 14.230469 18.546875 14.238281 C 18.546875 14.238281 18.542969 14.238281 18.539062 14.238281 C 18.484375 14.246094 18.433594 14.246094 18.378906 14.246094 C 18.371094 14.246094 18.359375 14.246094 18.351562 14.246094 C 18.300781 14.246094 18.25 14.242188 18.199219 14.230469 C 18.199219 14.230469 18.199219 14.230469 18.195312 14.230469 C 18.132812 14.222656 18.074219 14.203125 18.015625 14.1875 C 17.972656 14.171875 17.925781 14.152344 17.882812 14.132812 C 17.84375 14.117188 17.804688 14.101562 17.773438 14.082031 C 17.398438 13.871094 17.144531 13.476562 17.144531 13.019531 L 17.144531 10.566406 L 16.316406 10.566406 L 16.316406 13.019531 C 16.316406 13.699219 16.65625 14.300781 17.175781 14.671875 C 17.007812 15.007812 16.679688 15.398438 16.425781 15.699219 C 15.984375 16.21875 15.71875 16.53125 15.832031 16.886719 C 15.855469 16.960938 15.871094 17.035156 15.882812 17.113281 C 15.902344 17.246094 15.902344 17.382812 15.882812 17.523438 C 15.875 17.582031 15.867188 17.640625 15.847656 17.703125 C 15.828125 17.78125 15.796875 17.855469 15.761719 17.929688 C 15.585938 18.304688 15.246094 18.59375 14.839844 18.699219 C 14.570312 18.765625 14.300781 18.765625 14.042969 18.695312 C 13.972656 18.671875 13.898438 18.660156 13.824219 18.648438 L 13.824219 17.113281 L 14.238281 17.113281 L 14.238281 16.292969 L 12.578125 16.292969 L 12.578125 17.113281 L 12.992188 17.113281 L 12.992188 18.648438 C 12.917969 18.660156 12.84375 18.671875 12.769531 18.695312 C 12.515625 18.765625 12.246094 18.769531 11.972656 18.699219 C 11.566406 18.59375 11.226562 18.304688 11.050781 17.929688 C 11.015625 17.855469 10.988281 17.78125 10.964844 17.703125 C 10.949219 17.640625 10.9375 17.582031 10.929688 17.523438 C 10.910156 17.382812 10.910156 17.246094 10.929688 17.113281 C 10.941406 17.035156 10.957031 16.960938 10.980469 16.882812 C 11.097656 16.53125 10.832031 16.21875 10.394531 15.699219 C 10.136719 15.394531 9.8125 15.007812 9.644531 14.671875 Z M 22.488281 11.371094 L 24.0625 12.613281 L 28.511719 12.613281 L 30.085938 11.371094 L 30.441406 16.105469 C 30.4375 16.667969 30.15625 17.191406 29.679688 17.617188 C 29.578125 17.710938 29.464844 17.800781 29.34375 17.886719 C 29.230469 17.960938 29.113281 18.039062 28.984375 18.109375 C 28.257812 18.507812 27.316406 18.75 26.285156 18.75 C 25.109375 18.75 24.046875 18.433594 23.289062 17.929688 C 23.101562 17.804688 22.929688 17.667969 22.785156 17.523438 C 22.652344 17.390625 22.539062 17.257812 22.445312 17.113281 C 22.242188 16.804688 22.132812 16.46875 22.132812 16.121094 Z M 30 18.40625 C 30.789062 17.789062 31.273438 16.976562 31.273438 16.089844 L 30.796875 9.761719 L 28.21875 11.792969 L 24.355469 11.792969 L 21.777344 9.761719 L 21.300781 16.089844 C 21.300781 16.445312 21.378906 16.789062 21.523438 17.113281 L 16.71875 17.113281 C 16.707031 16.988281 16.6875 16.863281 16.65625 16.738281 C 16.726562 16.621094 16.917969 16.394531 17.0625 16.222656 C 17.363281 15.867188 17.722656 15.445312 17.929688 15.015625 C 17.972656 15.023438 18.015625 15.03125 18.058594 15.035156 C 18.085938 15.042969 18.113281 15.046875 18.140625 15.050781 C 18.171875 15.054688 18.199219 15.054688 18.226562 15.058594 C 18.269531 15.0625 18.308594 15.0625 18.355469 15.0625 C 18.367188 15.066406 18.378906 15.066406 18.390625 15.066406 C 18.402344 15.066406 18.414062 15.066406 18.425781 15.066406 C 18.464844 15.0625 18.503906 15.0625 18.546875 15.058594 C 18.574219 15.058594 18.601562 15.054688 18.632812 15.050781 C 18.636719 15.050781 18.644531 15.050781 18.648438 15.050781 C 18.664062 15.046875 18.679688 15.046875 18.691406 15.042969 C 19.695312 14.898438 20.46875 14.050781 20.46875 13.019531 L 20.46875 11.199219 L 16.765625 8.007812 L 14.960938 9.1875 C 14.28125 8.957031 13.574219 8.878906 12.855469 8.960938 C 12.515625 8.996094 12.175781 9.074219 11.847656 9.1875 L 10.050781 8.007812 L 6.34375 11.199219 L 6.34375 13.019531 C 6.34375 14.050781 7.125 14.90625 8.136719 15.046875 C 8.148438 15.046875 8.160156 15.050781 8.171875 15.050781 C 8.175781 15.050781 8.179688 15.050781 8.183594 15.050781 C 8.214844 15.054688 8.246094 15.058594 8.273438 15.058594 C 8.3125 15.0625 8.351562 15.0625 8.390625 15.066406 C 8.402344 15.066406 8.410156 15.066406 8.421875 15.066406 C 8.4375 15.066406 8.449219 15.066406 8.464844 15.0625 C 8.507812 15.0625 8.546875 15.0625 8.589844 15.058594 C 8.617188 15.054688 8.648438 15.054688 8.675781 15.050781 C 8.703125 15.046875 8.730469 15.042969 8.757812 15.035156 C 8.800781 15.03125 8.84375 15.023438 8.886719 15.011719 C 9.097656 15.445312 9.453125 15.867188 9.753906 16.222656 C 9.898438 16.394531 10.089844 16.617188 10.160156 16.738281 C 10.128906 16.859375 10.109375 16.984375 10.097656 17.113281 L 8.140625 17.113281 L 5.316406 24.070312 L 6.34375 24.070312 L 6.34375 33.480469 L 31.273438 33.480469 L 31.273438 24.070312 L 32.300781 24.070312 L 30 18.40625 " fill-opacity="1" fill-rule="nonzero"/></g><path fill="rgb(83.529663%, 38.42926%, 27.449036%)" d="M 12.160156 13.429688 L 11.328125 13.429688 L 11.328125 14.246094 C 12.160156 14.246094 11.328125 14.246094 12.160156 14.246094 L 12.160156 13.429688 " fill-opacity="1" fill-rule="nonzero"/><path fill="rgb(83.529663%, 38.42926%, 27.449036%)" d="M 21.507812 30.613281 L 20.261719 30.613281 L 20.261719 26.933594 L 21.507812 26.933594 Z M 19.429688 30.613281 L 18.183594 30.613281 L 18.183594 26.933594 L 19.429688 26.933594 Z M 17.355469 30.613281 L 16.105469 30.613281 L 16.105469 26.933594 L 17.355469 26.933594 Z M 19.429688 26.113281 L 15.277344 26.113281 L 15.277344 31.433594 L 22.339844 31.433594 L 22.339844 26.113281 L 19.429688 26.113281 " fill-opacity="1" fill-rule="nonzero"/></svg>